solid CATIA STL
  facet normal -7.071071e-001 -3.358578e-006 -7.071064e-001
    outer loop
      vertex -2.500000e+001  4.000000e-001  4.000000e-001
      vertex -2.460000e+001  4.000000e-001  0.000000e+000
      vertex -2.480000e+001  2.000000e-001  2.000000e-001
    endloop
  endfacet
  facet normal -7.071071e-001  0.000000e+000 -7.071065e-001
    outer loop
      vertex -2.460000e+001  4.000000e-001  0.000000e+000
      vertex -2.500000e+001  4.000000e-001  4.000000e-001
      vertex -2.460000e+001  1.600000e+000  0.000000e+000
    endloop
  endfacet
  facet normal -7.071071e-001  0.000000e+000 -7.071065e-001
    outer loop
      vertex -2.460000e+001  1.600000e+000  0.000000e+000
      vertex -2.500000e+001  4.000000e-001  4.000000e-001
      vertex -2.500000e+001  1.600000e+000  4.000000e-001
    endloop
  endfacet
  facet normal -7.071072e-001  3.358580e-006 -7.071065e-001
    outer loop
      vertex -2.460000e+001  1.600000e+000  0.000000e+000
      vertex -2.500000e+001  1.600000e+000  4.000000e-001
      vertex -2.480000e+001  1.800000e+000  2.000000e-001
    endloop
  endfacet
  facet normal  0.000000e+000  0.000000e+000 -9.999999e-001
    outer loop
      vertex -4.000000e-001  4.000000e-001  0.000000e+000
      vertex -2.460000e+001  4.000000e-001  0.000000e+000
      vertex -4.000000e-001  1.600000e+000  0.000000e+000
    endloop
  endfacet
  facet normal  -0.000000e+000  0.000000e+000 -9.999999e-001
    outer loop
      vertex -4.000000e-001  1.600000e+000  0.000000e+000
      vertex -2.460000e+001  4.000000e-001  0.000000e+000
      vertex -2.460000e+001  1.600000e+000  0.000000e+000
    endloop
  endfacet
  facet normal  7.071068e-001  0.000000e+000 -7.071068e-001
    outer loop
      vertex -2.000000e-001  2.000000e-001  2.000000e-001
      vertex -4.000000e-001  4.000000e-001  0.000000e+000
      vertex  0.000000e+000  4.000000e-001  4.000000e-001
    endloop
  endfacet
  facet normal  7.071068e-001  0.000000e+000 -7.071068e-001
    outer loop
      vertex -2.000000e-001  1.800000e+000  2.000000e-001
      vertex  0.000000e+000  1.600000e+000  4.000000e-001
      vertex -4.000000e-001  1.600000e+000  0.000000e+000
    endloop
  endfacet
  facet normal  7.071068e-001  0.000000e+000 -7.071068e-001
    outer loop
      vertex -4.000000e-001  1.600000e+000  0.000000e+000
      vertex  0.000000e+000  1.600000e+000  4.000000e-001
      vertex  0.000000e+000  4.000000e-001  4.000000e-001
    endloop
  endfacet
  facet normal  7.071068e-001  0.000000e+000 -7.071068e-001
    outer loop
      vertex -4.000000e-001  1.600000e+000  0.000000e+000
      vertex  0.000000e+000  4.000000e-001  4.000000e-001
      vertex -4.000000e-001  4.000000e-001  0.000000e+000
    endloop
  endfacet
  facet normal -7.071071e-001  7.071065e-001 -3.621997e-006
    outer loop
      vertex -2.480000e+001  1.800000e+000  2.000000e-001
      vertex -2.500000e+001  1.600000e+000  4.000000e-001
      vertex -2.460000e+001  2.000000e+000  4.000000e-001
    endloop
  endfacet
  facet normal -7.071071e-001  7.071065e-001  0.000000e+000
    outer loop
      vertex -2.460000e+001  2.000000e+000  4.000000e-001
      vertex -2.500000e+001  1.600000e+000  4.000000e-001
      vertex -2.500000e+001  1.600000e+000  9.960000e+001
    endloop
  endfacet
  facet normal -7.071071e-001  7.071064e-001  0.000000e+000
    outer loop
      vertex -2.460000e+001  2.000000e+000  4.000000e-001
      vertex -2.500000e+001  1.600000e+000  9.960000e+001
      vertex -2.460000e+001  2.000000e+000  1.000000e+002
    endloop
  endfacet
  facet normal  0.000000e+000  1.000000e+000  0.000000e+000
    outer loop
      vertex -4.000000e-001  2.000000e+000  4.000000e-001
      vertex -2.460000e+001  2.000000e+000  4.000000e-001
      vertex -2.250000e+001  2.000000e+000  3.000000e+000
    endloop
  endfacet
  facet normal  -0.000000e+000  1.000000e+000  0.000000e+000
    outer loop
      vertex -4.000000e-001  2.000000e+000  4.000000e-001
      vertex -2.250000e+001  2.000000e+000  3.000000e+000
      vertex -2.100000e+001  2.000000e+000  3.000000e+000
    endloop
  endfacet
  facet normal  -0.000000e+000  1.000000e+000  0.000000e+000
    outer loop
      vertex -4.000000e-001  2.000000e+000  4.000000e-001
      vertex -2.100000e+001  2.000000e+000  3.000000e+000
      vertex -1.950000e+001  2.000000e+000  3.000000e+000
    endloop
  endfacet
  facet normal  -0.000000e+000  1.000000e+000  0.000000e+000
    outer loop
      vertex -4.000000e-001  2.000000e+000  4.000000e-001
      vertex -1.950000e+001  2.000000e+000  3.000000e+000
      vertex -1.800000e+001  2.000000e+000  3.000000e+000
    endloop
  endfacet
  facet normal  -0.000000e+000  1.000000e+000  0.000000e+000
    outer loop
      vertex -4.000000e-001  2.000000e+000  4.000000e-001
      vertex -1.800000e+001  2.000000e+000  3.000000e+000
      vertex -1.650000e+001  2.000000e+000  3.000000e+000
    endloop
  endfacet
  facet normal  -0.000000e+000  1.000000e+000  0.000000e+000
    outer loop
      vertex -4.000000e-001  2.000000e+000  4.000000e-001
      vertex -1.650000e+001  2.000000e+000  3.000000e+000
      vertex -1.500000e+001  2.000000e+000  3.000000e+000
    endloop
  endfacet
  facet normal  -0.000000e+000  1.000000e+000  0.000000e+000
    outer loop
      vertex -4.000000e-001  2.000000e+000  4.000000e-001
      vertex -1.500000e+001  2.000000e+000  3.000000e+000
      vertex -1.350000e+001  2.000000e+000  3.000000e+000
    endloop
  endfacet
  facet normal  -0.000000e+000  1.000000e+000  0.000000e+000
    outer loop
      vertex -4.000000e-001  2.000000e+000  4.000000e-001
      vertex -1.350000e+001  2.000000e+000  3.000000e+000
      vertex -1.200000e+001  2.000000e+000  3.000000e+000
    endloop
  endfacet
  facet normal  -0.000000e+000  1.000000e+000  0.000000e+000
    outer loop
      vertex -4.000000e-001  2.000000e+000  4.000000e-001
      vertex -1.200000e+001  2.000000e+000  3.000000e+000
      vertex -1.050000e+001  2.000000e+000  3.000000e+000
    endloop
  endfacet
  facet normal  -0.000000e+000  1.000000e+000  0.000000e+000
    outer loop
      vertex -4.000000e-001  2.000000e+000  4.000000e-001
      vertex -1.050000e+001  2.000000e+000  3.000000e+000
      vertex -9.000000e+000  2.000000e+000  3.000000e+000
    endloop
  endfacet
  facet normal  -0.000000e+000  1.000000e+000  0.000000e+000
    outer loop
      vertex -4.000000e-001  2.000000e+000  4.000000e-001
      vertex -9.000000e+000  2.000000e+000  3.000000e+000
      vertex -7.500000e+000  2.000000e+000  3.000000e+000
    endloop
  endfacet
  facet normal  -0.000000e+000  1.000000e+000  0.000000e+000
    outer loop
      vertex -4.000000e-001  2.000000e+000  4.000000e-001
      vertex -7.500000e+000  2.000000e+000  3.000000e+000
      vertex -6.000000e+000  2.000000e+000  3.000000e+000
    endloop
  endfacet
  facet normal  -0.000000e+000  1.000000e+000  0.000000e+000
    outer loop
      vertex -4.000000e-001  2.000000e+000  4.000000e-001
      vertex -6.000000e+000  2.000000e+000  3.000000e+000
      vertex -4.500000e+000  2.000000e+000  3.000000e+000
    endloop
  endfacet
  facet normal  -0.000000e+000  1.000000e+000  0.000000e+000
    outer loop
      vertex -4.000000e-001  2.000000e+000  4.000000e-001
      vertex -4.500000e+000  2.000000e+000  3.000000e+000
      vertex -3.000000e+000  2.000000e+000  3.000000e+000
    endloop
  endfacet
  facet normal  -0.000000e+000  1.000000e+000  0.000000e+000
    outer loop
      vertex -4.000000e-001  2.000000e+000  4.000000e-001
      vertex -3.000000e+000  2.000000e+000  3.000000e+000
      vertex -3.000000e+000  2.000000e+000  9.700000e+001
    endloop
  endfacet
  facet normal  -0.000000e+000  1.000000e+000  0.000000e+000
    outer loop
      vertex -4.000000e-001  2.000000e+000  4.000000e-001
      vertex -3.000000e+000  2.000000e+000  9.700000e+001
      vertex -4.000000e-001  2.000000e+000  1.000000e+002
    endloop
  endfacet
  facet normal  0.000000e+000  1.000000e+000  -0.000000e+000
    outer loop
      vertex -4.000000e-001  2.000000e+000  1.000000e+002
      vertex -3.000000e+000  2.000000e+000  9.700000e+001
      vertex -4.500000e+000  2.000000e+000  9.700000e+001
    endloop
  endfacet
  facet normal  0.000000e+000  1.000000e+000  -0.000000e+000
    outer loop
      vertex -4.000000e-001  2.000000e+000  1.000000e+002
      vertex -4.500000e+000  2.000000e+000  9.700000e+001
      vertex -6.000000e+000  2.000000e+000  9.700000e+001
    endloop
  endfacet
  facet normal  0.000000e+000  1.000000e+000  -0.000000e+000
    outer loop
      vertex -4.000000e-001  2.000000e+000  1.000000e+002
      vertex -6.000000e+000  2.000000e+000  9.700000e+001
      vertex -7.500000e+000  2.000000e+000  9.700000e+001
    endloop
  endfacet
  facet normal  0.000000e+000  1.000000e+000  -0.000000e+000
    outer loop
      vertex -4.000000e-001  2.000000e+000  1.000000e+002
      vertex -7.500000e+000  2.000000e+000  9.700000e+001
      vertex -9.000000e+000  2.000000e+000  9.700000e+001
    endloop
  endfacet
  facet normal  0.000000e+000  1.000000e+000  -0.000000e+000
    outer loop
      vertex -4.000000e-001  2.000000e+000  1.000000e+002
      vertex -9.000000e+000  2.000000e+000  9.700000e+001
      vertex -1.050000e+001  2.000000e+000  9.700000e+001
    endloop
  endfacet
  facet normal  0.000000e+000  1.000000e+000  -0.000000e+000
    outer loop
      vertex -4.000000e-001  2.000000e+000  1.000000e+002
      vertex -1.050000e+001  2.000000e+000  9.700000e+001
      vertex -1.200000e+001  2.000000e+000  9.700000e+001
    endloop
  endfacet
  facet normal  0.000000e+000  1.000000e+000  -0.000000e+000
    outer loop
      vertex -4.000000e-001  2.000000e+000  1.000000e+002
      vertex -1.200000e+001  2.000000e+000  9.700000e+001
      vertex -1.350000e+001  2.000000e+000  9.700000e+001
    endloop
  endfacet
  facet normal  0.000000e+000  1.000000e+000  -0.000000e+000
    outer loop
      vertex -4.000000e-001  2.000000e+000  1.000000e+002
      vertex -1.350000e+001  2.000000e+000  9.700000e+001
      vertex -1.500000e+001  2.000000e+000  9.700000e+001
    endloop
  endfacet
  facet normal  0.000000e+000  1.000000e+000  -0.000000e+000
    outer loop
      vertex -4.000000e-001  2.000000e+000  1.000000e+002
      vertex -1.500000e+001  2.000000e+000  9.700000e+001
      vertex -1.650000e+001  2.000000e+000  9.700000e+001
    endloop
  endfacet
  facet normal  0.000000e+000  1.000000e+000  -0.000000e+000
    outer loop
      vertex -4.000000e-001  2.000000e+000  1.000000e+002
      vertex -1.650000e+001  2.000000e+000  9.700000e+001
      vertex -1.800000e+001  2.000000e+000  9.700000e+001
    endloop
  endfacet
  facet normal  0.000000e+000  1.000000e+000  -0.000000e+000
    outer loop
      vertex -4.000000e-001  2.000000e+000  1.000000e+002
      vertex -1.800000e+001  2.000000e+000  9.700000e+001
      vertex -1.950000e+001  2.000000e+000  9.700000e+001
    endloop
  endfacet
  facet normal  0.000000e+000  1.000000e+000  -0.000000e+000
    outer loop
      vertex -4.000000e-001  2.000000e+000  1.000000e+002
      vertex -1.950000e+001  2.000000e+000  9.700000e+001
      vertex -2.100000e+001  2.000000e+000  9.700000e+001
    endloop
  endfacet
  facet normal  0.000000e+000  1.000000e+000  -0.000000e+000
    outer loop
      vertex -4.000000e-001  2.000000e+000  1.000000e+002
      vertex -2.100000e+001  2.000000e+000  9.700000e+001
      vertex -2.250000e+001  2.000000e+000  9.700000e+001
    endloop
  endfacet
  facet normal  0.000000e+000  1.000000e+000  -0.000000e+000
    outer loop
      vertex -4.000000e-001  2.000000e+000  1.000000e+002
      vertex -2.250000e+001  2.000000e+000  9.700000e+001
      vertex -2.460000e+001  2.000000e+000  1.000000e+002
    endloop
  endfacet
  facet normal  0.000000e+000  9.999999e-001  0.000000e+000
    outer loop
      vertex -6.000000e+000  2.000000e+000  9.700000e+001
      vertex -4.500000e+000  2.000000e+000  9.700000e+001
      vertex -6.000000e+000  2.000000e+000  3.000000e+000
    endloop
  endfacet
  facet normal  0.000000e+000  9.999999e-001  0.000000e+000
    outer loop
      vertex -6.000000e+000  2.000000e+000  3.000000e+000
      vertex -4.500000e+000  2.000000e+000  9.700000e+001
      vertex -4.500000e+000  2.000000e+000  3.000000e+000
    endloop
  endfacet
  facet normal  0.000000e+000  9.999999e-001  0.000000e+000
    outer loop
      vertex -9.000000e+000  2.000000e+000  9.700000e+001
      vertex -7.500000e+000  2.000000e+000  9.700000e+001
      vertex -9.000000e+000  2.000000e+000  3.000000e+000
    endloop
  endfacet
  facet normal  0.000000e+000  9.999999e-001  0.000000e+000
    outer loop
      vertex -9.000000e+000  2.000000e+000  3.000000e+000
      vertex -7.500000e+000  2.000000e+000  9.700000e+001
      vertex -7.500000e+000  2.000000e+000  3.000000e+000
    endloop
  endfacet
  facet normal  0.000000e+000  9.999999e-001  0.000000e+000
    outer loop
      vertex -1.200000e+001  2.000000e+000  9.700000e+001
      vertex -1.050000e+001  2.000000e+000  9.700000e+001
      vertex -1.200000e+001  2.000000e+000  3.000000e+000
    endloop
  endfacet
  facet normal  0.000000e+000  9.999999e-001  0.000000e+000
    outer loop
      vertex -1.200000e+001  2.000000e+000  3.000000e+000
      vertex -1.050000e+001  2.000000e+000  9.700000e+001
      vertex -1.050000e+001  2.000000e+000  3.000000e+000
    endloop
  endfacet
  facet normal  0.000000e+000  9.999999e-001  0.000000e+000
    outer loop
      vertex -1.500000e+001  2.000000e+000  9.700000e+001
      vertex -1.350000e+001  2.000000e+000  9.700000e+001
      vertex -1.500000e+001  2.000000e+000  3.000000e+000
    endloop
  endfacet
  facet normal  0.000000e+000  9.999999e-001  0.000000e+000
    outer loop
      vertex -1.500000e+001  2.000000e+000  3.000000e+000
      vertex -1.350000e+001  2.000000e+000  9.700000e+001
      vertex -1.350000e+001  2.000000e+000  3.000000e+000
    endloop
  endfacet
  facet normal  0.000000e+000  9.999999e-001  0.000000e+000
    outer loop
      vertex -1.800000e+001  2.000000e+000  9.700000e+001
      vertex -1.650000e+001  2.000000e+000  9.700000e+001
      vertex -1.800000e+001  2.000000e+000  3.000000e+000
    endloop
  endfacet
  facet normal  0.000000e+000  9.999999e-001  0.000000e+000
    outer loop
      vertex -1.800000e+001  2.000000e+000  3.000000e+000
      vertex -1.650000e+001  2.000000e+000  9.700000e+001
      vertex -1.650000e+001  2.000000e+000  3.000000e+000
    endloop
  endfacet
  facet normal  0.000000e+000  9.999999e-001  0.000000e+000
    outer loop
      vertex -2.100000e+001  2.000000e+000  9.700000e+001
      vertex -1.950000e+001  2.000000e+000  9.700000e+001
      vertex -2.100000e+001  2.000000e+000  3.000000e+000
    endloop
  endfacet
  facet normal  0.000000e+000  9.999999e-001  0.000000e+000
    outer loop
      vertex -2.100000e+001  2.000000e+000  3.000000e+000
      vertex -1.950000e+001  2.000000e+000  9.700000e+001
      vertex -1.950000e+001  2.000000e+000  3.000000e+000
    endloop
  endfacet
  facet normal  0.000000e+000  1.000000e+000  0.000000e+000
    outer loop
      vertex -2.460000e+001  2.000000e+000  1.000000e+002
      vertex -2.250000e+001  2.000000e+000  9.700000e+001
      vertex -2.460000e+001  2.000000e+000  4.000000e-001
    endloop
  endfacet
  facet normal  0.000000e+000  1.000000e+000  0.000000e+000
    outer loop
      vertex -2.460000e+001  2.000000e+000  4.000000e-001
      vertex -2.250000e+001  2.000000e+000  9.700000e+001
      vertex -2.250000e+001  2.000000e+000  3.000000e+000
    endloop
  endfacet
  facet normal  7.071068e-001  7.071068e-001  0.000000e+000
    outer loop
      vertex -4.000000e-001  2.000000e+000  1.000000e+002
      vertex  0.000000e+000  1.600000e+000  9.960000e+001
      vertex -4.000000e-001  2.000000e+000  4.000000e-001
    endloop
  endfacet
  facet normal  7.071068e-001  7.071069e-001  0.000000e+000
    outer loop
      vertex -4.000000e-001  2.000000e+000  4.000000e-001
      vertex  0.000000e+000  1.600000e+000  9.960000e+001
      vertex  0.000000e+000  1.600000e+000  4.000000e-001
    endloop
  endfacet
  facet normal  7.071068e-001  7.071068e-001 -1.975634e-007
    outer loop
      vertex -4.000000e-001  2.000000e+000  4.000000e-001
      vertex  0.000000e+000  1.600000e+000  4.000000e-001
      vertex -2.000000e-001  1.800000e+000  2.000000e-001
    endloop
  endfacet
  facet normal  1.975634e-007  7.071068e-001 -7.071068e-001
    outer loop
      vertex -4.000000e-001  1.600000e+000  0.000000e+000
      vertex -4.000000e-001  2.000000e+000  4.000000e-001
      vertex -2.000000e-001  1.800000e+000  2.000000e-001
    endloop
  endfacet
  facet normal  0.000000e+000  7.071068e-001 -7.071068e-001
    outer loop
      vertex -4.000000e-001  2.000000e+000  4.000000e-001
      vertex -4.000000e-001  1.600000e+000  0.000000e+000
      vertex -2.460000e+001  2.000000e+000  4.000000e-001
    endloop
  endfacet
  facet normal  0.000000e+000  7.071068e-001 -7.071068e-001
    outer loop
      vertex -2.460000e+001  2.000000e+000  4.000000e-001
      vertex -4.000000e-001  1.600000e+000  0.000000e+000
      vertex -2.460000e+001  1.600000e+000  0.000000e+000
    endloop
  endfacet
  facet normal -1.975645e-007  7.071068e-001 -7.071067e-001
    outer loop
      vertex -2.460000e+001  2.000000e+000  4.000000e-001
      vertex -2.460000e+001  1.600000e+000  0.000000e+000
      vertex -2.480000e+001  1.800000e+000  2.000000e-001
    endloop
  endfacet
  facet normal -7.071071e-001 -7.071064e-001 -3.358578e-006
    outer loop
      vertex -2.480000e+001  2.000000e-001  2.000000e-001
      vertex -2.460000e+001  0.000000e+000  4.000000e-001
      vertex -2.500000e+001  4.000000e-001  4.000000e-001
    endloop
  endfacet
  facet normal -7.071071e-001 -7.071064e-001  0.000000e+000
    outer loop
      vertex -2.500000e+001  4.000000e-001  4.000000e-001
      vertex -2.460000e+001  0.000000e+000  4.000000e-001
      vertex -2.460000e+001  0.000000e+000  1.000000e+002
    endloop
  endfacet
  facet normal -7.071071e-001 -7.071064e-001  0.000000e+000
    outer loop
      vertex -2.500000e+001  4.000000e-001  4.000000e-001
      vertex -2.460000e+001  0.000000e+000  1.000000e+002
      vertex -2.500000e+001  4.000000e-001  9.960000e+001
    endloop
  endfacet
  facet normal  0.000000e+000 -1.000000e+000  0.000000e+000
    outer loop
      vertex -4.000000e-001  0.000000e+000  1.000000e+002
      vertex -2.460000e+001  0.000000e+000  1.000000e+002
      vertex -2.250000e+001  0.000000e+000  9.700000e+001
    endloop
  endfacet
  facet normal  0.000000e+000 -1.000000e+000  0.000000e+000
    outer loop
      vertex -4.000000e-001  0.000000e+000  1.000000e+002
      vertex -2.250000e+001  0.000000e+000  9.700000e+001
      vertex -2.100000e+001  0.000000e+000  9.700000e+001
    endloop
  endfacet
  facet normal  0.000000e+000 -1.000000e+000  0.000000e+000
    outer loop
      vertex -4.000000e-001  0.000000e+000  1.000000e+002
      vertex -2.100000e+001  0.000000e+000  9.700000e+001
      vertex -1.950000e+001  0.000000e+000  9.700000e+001
    endloop
  endfacet
  facet normal  0.000000e+000 -1.000000e+000  0.000000e+000
    outer loop
      vertex -4.000000e-001  0.000000e+000  1.000000e+002
      vertex -1.950000e+001  0.000000e+000  9.700000e+001
      vertex -1.800000e+001  0.000000e+000  9.700000e+001
    endloop
  endfacet
  facet normal  0.000000e+000 -1.000000e+000  0.000000e+000
    outer loop
      vertex -4.000000e-001  0.000000e+000  1.000000e+002
      vertex -1.800000e+001  0.000000e+000  9.700000e+001
      vertex -1.650000e+001  0.000000e+000  9.700000e+001
    endloop
  endfacet
  facet normal  0.000000e+000 -1.000000e+000  0.000000e+000
    outer loop
      vertex -4.000000e-001  0.000000e+000  1.000000e+002
      vertex -1.650000e+001  0.000000e+000  9.700000e+001
      vertex -1.500000e+001  0.000000e+000  9.700000e+001
    endloop
  endfacet
  facet normal  0.000000e+000 -1.000000e+000  0.000000e+000
    outer loop
      vertex -4.000000e-001  0.000000e+000  1.000000e+002
      vertex -1.500000e+001  0.000000e+000  9.700000e+001
      vertex -1.350000e+001  0.000000e+000  9.700000e+001
    endloop
  endfacet
  facet normal  0.000000e+000 -1.000000e+000  0.000000e+000
    outer loop
      vertex -4.000000e-001  0.000000e+000  1.000000e+002
      vertex -1.350000e+001  0.000000e+000  9.700000e+001
      vertex -1.200000e+001  0.000000e+000  9.700000e+001
    endloop
  endfacet
  facet normal  0.000000e+000 -1.000000e+000  0.000000e+000
    outer loop
      vertex -4.000000e-001  0.000000e+000  1.000000e+002
      vertex -1.200000e+001  0.000000e+000  9.700000e+001
      vertex -1.050000e+001  0.000000e+000  9.700000e+001
    endloop
  endfacet
  facet normal  0.000000e+000 -1.000000e+000  0.000000e+000
    outer loop
      vertex -4.000000e-001  0.000000e+000  1.000000e+002
      vertex -1.050000e+001  0.000000e+000  9.700000e+001
      vertex -9.000000e+000  0.000000e+000  9.700000e+001
    endloop
  endfacet
  facet normal  0.000000e+000 -1.000000e+000  0.000000e+000
    outer loop
      vertex -4.000000e-001  0.000000e+000  1.000000e+002
      vertex -9.000000e+000  0.000000e+000  9.700000e+001
      vertex -7.500000e+000  0.000000e+000  9.700000e+001
    endloop
  endfacet
  facet normal  0.000000e+000 -1.000000e+000  0.000000e+000
    outer loop
      vertex -4.000000e-001  0.000000e+000  1.000000e+002
      vertex -7.500000e+000  0.000000e+000  9.700000e+001
      vertex -6.000000e+000  0.000000e+000  9.700000e+001
    endloop
  endfacet
  facet normal  0.000000e+000 -1.000000e+000  0.000000e+000
    outer loop
      vertex -4.000000e-001  0.000000e+000  1.000000e+002
      vertex -6.000000e+000  0.000000e+000  9.700000e+001
      vertex -4.500000e+000  0.000000e+000  9.700000e+001
    endloop
  endfacet
  facet normal  0.000000e+000 -1.000000e+000  0.000000e+000
    outer loop
      vertex -4.000000e-001  0.000000e+000  1.000000e+002
      vertex -4.500000e+000  0.000000e+000  9.700000e+001
      vertex -3.000000e+000  0.000000e+000  9.700000e+001
    endloop
  endfacet
  facet normal  0.000000e+000 -1.000000e+000  0.000000e+000
    outer loop
      vertex -4.000000e-001  0.000000e+000  1.000000e+002
      vertex -3.000000e+000  0.000000e+000  9.700000e+001
      vertex -3.000000e+000  0.000000e+000  3.000000e+000
    endloop
  endfacet
  facet normal  0.000000e+000 -1.000000e+000  0.000000e+000
    outer loop
      vertex -4.000000e-001  0.000000e+000  1.000000e+002
      vertex -3.000000e+000  0.000000e+000  3.000000e+000
      vertex -4.000000e-001  0.000000e+000  4.000000e-001
    endloop
  endfacet
  facet normal  -0.000000e+000 -1.000000e+000  -0.000000e+000
    outer loop
      vertex -4.000000e-001  0.000000e+000  4.000000e-001
      vertex -3.000000e+000  0.000000e+000  3.000000e+000
      vertex -4.500000e+000  0.000000e+000  3.000000e+000
    endloop
  endfacet
  facet normal  -0.000000e+000 -1.000000e+000  -0.000000e+000
    outer loop
      vertex -4.000000e-001  0.000000e+000  4.000000e-001
      vertex -4.500000e+000  0.000000e+000  3.000000e+000
      vertex -6.000000e+000  0.000000e+000  3.000000e+000
    endloop
  endfacet
  facet normal  -0.000000e+000 -1.000000e+000  -0.000000e+000
    outer loop
      vertex -4.000000e-001  0.000000e+000  4.000000e-001
      vertex -6.000000e+000  0.000000e+000  3.000000e+000
      vertex -7.500000e+000  0.000000e+000  3.000000e+000
    endloop
  endfacet
  facet normal  -0.000000e+000 -1.000000e+000  -0.000000e+000
    outer loop
      vertex -4.000000e-001  0.000000e+000  4.000000e-001
      vertex -7.500000e+000  0.000000e+000  3.000000e+000
      vertex -9.000000e+000  0.000000e+000  3.000000e+000
    endloop
  endfacet
  facet normal  -0.000000e+000 -1.000000e+000  -0.000000e+000
    outer loop
      vertex -4.000000e-001  0.000000e+000  4.000000e-001
      vertex -9.000000e+000  0.000000e+000  3.000000e+000
      vertex -1.050000e+001  0.000000e+000  3.000000e+000
    endloop
  endfacet
  facet normal  -0.000000e+000 -1.000000e+000  -0.000000e+000
    outer loop
      vertex -4.000000e-001  0.000000e+000  4.000000e-001
      vertex -1.050000e+001  0.000000e+000  3.000000e+000
      vertex -1.200000e+001  0.000000e+000  3.000000e+000
    endloop
  endfacet
  facet normal  -0.000000e+000 -1.000000e+000  -0.000000e+000
    outer loop
      vertex -4.000000e-001  0.000000e+000  4.000000e-001
      vertex -1.200000e+001  0.000000e+000  3.000000e+000
      vertex -1.350000e+001  0.000000e+000  3.000000e+000
    endloop
  endfacet
  facet normal  -0.000000e+000 -1.000000e+000  -0.000000e+000
    outer loop
      vertex -4.000000e-001  0.000000e+000  4.000000e-001
      vertex -1.350000e+001  0.000000e+000  3.000000e+000
      vertex -1.500000e+001  0.000000e+000  3.000000e+000
    endloop
  endfacet
  facet normal  -0.000000e+000 -1.000000e+000  -0.000000e+000
    outer loop
      vertex -4.000000e-001  0.000000e+000  4.000000e-001
      vertex -1.500000e+001  0.000000e+000  3.000000e+000
      vertex -1.650000e+001  0.000000e+000  3.000000e+000
    endloop
  endfacet
  facet normal  -0.000000e+000 -1.000000e+000  -0.000000e+000
    outer loop
      vertex -4.000000e-001  0.000000e+000  4.000000e-001
      vertex -1.650000e+001  0.000000e+000  3.000000e+000
      vertex -1.800000e+001  0.000000e+000  3.000000e+000
    endloop
  endfacet
  facet normal  -0.000000e+000 -1.000000e+000  -0.000000e+000
    outer loop
      vertex -4.000000e-001  0.000000e+000  4.000000e-001
      vertex -1.800000e+001  0.000000e+000  3.000000e+000
      vertex -1.950000e+001  0.000000e+000  3.000000e+000
    endloop
  endfacet
  facet normal  -0.000000e+000 -1.000000e+000  -0.000000e+000
    outer loop
      vertex -4.000000e-001  0.000000e+000  4.000000e-001
      vertex -1.950000e+001  0.000000e+000  3.000000e+000
      vertex -2.100000e+001  0.000000e+000  3.000000e+000
    endloop
  endfacet
  facet normal  -0.000000e+000 -1.000000e+000  -0.000000e+000
    outer loop
      vertex -4.000000e-001  0.000000e+000  4.000000e-001
      vertex -2.100000e+001  0.000000e+000  3.000000e+000
      vertex -2.250000e+001  0.000000e+000  3.000000e+000
    endloop
  endfacet
  facet normal  0.000000e+000 -1.000000e+000  -0.000000e+000
    outer loop
      vertex -4.000000e-001  0.000000e+000  4.000000e-001
      vertex -2.250000e+001  0.000000e+000  3.000000e+000
      vertex -2.460000e+001  0.000000e+000  4.000000e-001
    endloop
  endfacet
  facet normal  0.000000e+000 -9.999999e-001  0.000000e+000
    outer loop
      vertex -6.000000e+000  0.000000e+000  3.000000e+000
      vertex -4.500000e+000  0.000000e+000  3.000000e+000
      vertex -6.000000e+000  0.000000e+000  9.700000e+001
    endloop
  endfacet
  facet normal  0.000000e+000 -9.999999e-001  0.000000e+000
    outer loop
      vertex -6.000000e+000  0.000000e+000  9.700000e+001
      vertex -4.500000e+000  0.000000e+000  3.000000e+000
      vertex -4.500000e+000  0.000000e+000  9.700000e+001
    endloop
  endfacet
  facet normal  0.000000e+000 -9.999999e-001  0.000000e+000
    outer loop
      vertex -9.000000e+000  0.000000e+000  3.000000e+000
      vertex -7.500000e+000  0.000000e+000  3.000000e+000
      vertex -9.000000e+000  0.000000e+000  9.700000e+001
    endloop
  endfacet
  facet normal  0.000000e+000 -9.999999e-001  0.000000e+000
    outer loop
      vertex -9.000000e+000  0.000000e+000  9.700000e+001
      vertex -7.500000e+000  0.000000e+000  3.000000e+000
      vertex -7.500000e+000  0.000000e+000  9.700000e+001
    endloop
  endfacet
  facet normal  0.000000e+000 -9.999999e-001  0.000000e+000
    outer loop
      vertex -1.200000e+001  0.000000e+000  3.000000e+000
      vertex -1.050000e+001  0.000000e+000  3.000000e+000
      vertex -1.200000e+001  0.000000e+000  9.700000e+001
    endloop
  endfacet
  facet normal  0.000000e+000 -9.999999e-001  0.000000e+000
    outer loop
      vertex -1.200000e+001  0.000000e+000  9.700000e+001
      vertex -1.050000e+001  0.000000e+000  3.000000e+000
      vertex -1.050000e+001  0.000000e+000  9.700000e+001
    endloop
  endfacet
  facet normal  0.000000e+000 -9.999999e-001  0.000000e+000
    outer loop
      vertex -1.500000e+001  0.000000e+000  3.000000e+000
      vertex -1.350000e+001  0.000000e+000  3.000000e+000
      vertex -1.500000e+001  0.000000e+000  9.700000e+001
    endloop
  endfacet
  facet normal  0.000000e+000 -9.999999e-001  0.000000e+000
    outer loop
      vertex -1.500000e+001  0.000000e+000  9.700000e+001
      vertex -1.350000e+001  0.000000e+000  3.000000e+000
      vertex -1.350000e+001  0.000000e+000  9.700000e+001
    endloop
  endfacet
  facet normal  0.000000e+000 -9.999999e-001  0.000000e+000
    outer loop
      vertex -1.800000e+001  0.000000e+000  3.000000e+000
      vertex -1.650000e+001  0.000000e+000  3.000000e+000
      vertex -1.800000e+001  0.000000e+000  9.700000e+001
    endloop
  endfacet
  facet normal  0.000000e+000 -9.999999e-001  0.000000e+000
    outer loop
      vertex -1.800000e+001  0.000000e+000  9.700000e+001
      vertex -1.650000e+001  0.000000e+000  3.000000e+000
      vertex -1.650000e+001  0.000000e+000  9.700000e+001
    endloop
  endfacet
  facet normal  0.000000e+000 -9.999999e-001  0.000000e+000
    outer loop
      vertex -2.100000e+001  0.000000e+000  3.000000e+000
      vertex -1.950000e+001  0.000000e+000  3.000000e+000
      vertex -2.100000e+001  0.000000e+000  9.700000e+001
    endloop
  endfacet
  facet normal  0.000000e+000 -9.999999e-001  0.000000e+000
    outer loop
      vertex -2.100000e+001  0.000000e+000  9.700000e+001
      vertex -1.950000e+001  0.000000e+000  3.000000e+000
      vertex -1.950000e+001  0.000000e+000  9.700000e+001
    endloop
  endfacet
  facet normal  -0.000000e+000 -1.000000e+000  0.000000e+000
    outer loop
      vertex -2.460000e+001  0.000000e+000  4.000000e-001
      vertex -2.250000e+001  0.000000e+000  3.000000e+000
      vertex -2.460000e+001  0.000000e+000  1.000000e+002
    endloop
  endfacet
  facet normal  0.000000e+000 -1.000000e+000  0.000000e+000
    outer loop
      vertex -2.460000e+001  0.000000e+000  1.000000e+002
      vertex -2.250000e+001  0.000000e+000  3.000000e+000
      vertex -2.250000e+001  0.000000e+000  9.700000e+001
    endloop
  endfacet
  facet normal  7.071068e-001 -7.071068e-001  0.000000e+000
    outer loop
      vertex  0.000000e+000  4.000000e-001  9.960000e+001
      vertex -4.000000e-001  0.000000e+000  1.000000e+002
      vertex  0.000000e+000  4.000000e-001  4.000000e-001
    endloop
  endfacet
  facet normal  7.071068e-001 -7.071068e-001  0.000000e+000
    outer loop
      vertex  0.000000e+000  4.000000e-001  4.000000e-001
      vertex -4.000000e-001  0.000000e+000  1.000000e+002
      vertex -4.000000e-001  0.000000e+000  4.000000e-001
    endloop
  endfacet
  facet normal  7.071068e-001 -7.071068e-001  0.000000e+000
    outer loop
      vertex  0.000000e+000  4.000000e-001  4.000000e-001
      vertex -4.000000e-001  0.000000e+000  4.000000e-001
      vertex -2.000000e-001  2.000000e-001  2.000000e-001
    endloop
  endfacet
  facet normal  0.000000e+000 -7.071068e-001 -7.071068e-001
    outer loop
      vertex -2.000000e-001  2.000000e-001  2.000000e-001
      vertex -4.000000e-001  0.000000e+000  4.000000e-001
      vertex -4.000000e-001  4.000000e-001  0.000000e+000
    endloop
  endfacet
  facet normal  0.000000e+000 -7.071068e-001 -7.071068e-001
    outer loop
      vertex -2.480000e+001  2.000000e-001  2.000000e-001
      vertex -2.460000e+001  4.000000e-001  0.000000e+000
      vertex -2.460000e+001  0.000000e+000  4.000000e-001
    endloop
  endfacet
  facet normal  0.000000e+000 -7.071068e-001 -7.071068e-001
    outer loop
      vertex -2.460000e+001  0.000000e+000  4.000000e-001
      vertex -2.460000e+001  4.000000e-001  0.000000e+000
      vertex -4.000000e-001  4.000000e-001  0.000000e+000
    endloop
  endfacet
  facet normal  0.000000e+000 -7.071068e-001 -7.071068e-001
    outer loop
      vertex -2.460000e+001  0.000000e+000  4.000000e-001
      vertex -4.000000e-001  4.000000e-001  0.000000e+000
      vertex -4.000000e-001  0.000000e+000  4.000000e-001
    endloop
  endfacet
  facet normal -1.000000e+000  0.000000e+000  0.000000e+000
    outer loop
      vertex -2.500000e+001  4.000000e-001  4.000000e-001
      vertex -2.500000e+001  4.000000e-001  9.960000e+001
      vertex -2.500000e+001  1.600000e+000  4.000000e-001
    endloop
  endfacet
  facet normal -1.000000e+000  0.000000e+000  0.000000e+000
    outer loop
      vertex -2.500000e+001  1.600000e+000  4.000000e-001
      vertex -2.500000e+001  4.000000e-001  9.960000e+001
      vertex -2.500000e+001  1.600000e+000  9.960000e+001
    endloop
  endfacet
  facet normal  0.000000e+000  0.000000e+000  1.000000e+000
    outer loop
      vertex -4.000000e-001  0.000000e+000  1.000000e+002
      vertex -4.000000e-001  2.000000e+000  1.000000e+002
      vertex -2.460000e+001  0.000000e+000  1.000000e+002
    endloop
  endfacet
  facet normal  0.000000e+000  0.000000e+000  1.000000e+000
    outer loop
      vertex -2.460000e+001  0.000000e+000  1.000000e+002
      vertex -4.000000e-001  2.000000e+000  1.000000e+002
      vertex -2.460000e+001  2.000000e+000  1.000000e+002
    endloop
  endfacet
  facet normal -7.071085e-001  0.000000e+000  7.071051e-001
    outer loop
      vertex -2.460000e+001  0.000000e+000  1.000000e+002
      vertex -2.460000e+001  2.000000e+000  1.000000e+002
      vertex -2.500000e+001  4.000000e-001  9.960000e+001
    endloop
  endfacet
  facet normal -7.071084e-001  0.000000e+000  7.071051e-001
    outer loop
      vertex -2.500000e+001  4.000000e-001  9.960000e+001
      vertex -2.460000e+001  2.000000e+000  1.000000e+002
      vertex -2.500000e+001  1.600000e+000  9.960000e+001
    endloop
  endfacet
  facet normal  1.000000e+000  0.000000e+000  0.000000e+000
    outer loop
      vertex  0.000000e+000  4.000000e-001  4.000000e-001
      vertex  0.000000e+000  1.600000e+000  4.000000e-001
      vertex  0.000000e+000  4.000000e-001  9.960000e+001
    endloop
  endfacet
  facet normal  1.000000e+000  -0.000000e+000  0.000000e+000
    outer loop
      vertex  0.000000e+000  4.000000e-001  9.960000e+001
      vertex  0.000000e+000  1.600000e+000  4.000000e-001
      vertex  0.000000e+000  1.600000e+000  9.960000e+001
    endloop
  endfacet
  facet normal  7.071081e-001  0.000000e+000  7.071055e-001
    outer loop
      vertex -4.000000e-001  0.000000e+000  1.000000e+002
      vertex  0.000000e+000  4.000000e-001  9.960000e+001
      vertex -4.000000e-001  2.000000e+000  1.000000e+002
    endloop
  endfacet
  facet normal  7.071081e-001  0.000000e+000  7.071055e-001
    outer loop
      vertex -4.000000e-001  2.000000e+000  1.000000e+002
      vertex  0.000000e+000  4.000000e-001  9.960000e+001
      vertex  0.000000e+000  1.600000e+000  9.960000e+001
    endloop
  endfacet
  facet normal  0.000000e+000  0.000000e+000 -1.000000e+000
    outer loop
      vertex -2.100000e+001  0.000000e+000  9.700000e+001
      vertex -2.250000e+001  0.000000e+000  9.700000e+001
      vertex -2.100000e+001  2.000000e+000  9.700000e+001
    endloop
  endfacet
  facet normal  -0.000000e+000  0.000000e+000 -1.000000e+000
    outer loop
      vertex -2.100000e+001  2.000000e+000  9.700000e+001
      vertex -2.250000e+001  0.000000e+000  9.700000e+001
      vertex -2.250000e+001  2.000000e+000  9.700000e+001
    endloop
  endfacet
  facet normal  9.999999e-001  0.000000e+000  0.000000e+000
    outer loop
      vertex -2.250000e+001  0.000000e+000  3.000000e+000
      vertex -2.250000e+001  2.000000e+000  3.000000e+000
      vertex -2.250000e+001  0.000000e+000  9.700000e+001
    endloop
  endfacet
  facet normal  9.999999e-001  -0.000000e+000  0.000000e+000
    outer loop
      vertex -2.250000e+001  0.000000e+000  9.700000e+001
      vertex -2.250000e+001  2.000000e+000  3.000000e+000
      vertex -2.250000e+001  2.000000e+000  9.700000e+001
    endloop
  endfacet
  facet normal  0.000000e+000  0.000000e+000  1.000000e+000
    outer loop
      vertex -2.250000e+001  0.000000e+000  3.000000e+000
      vertex -2.100000e+001  0.000000e+000  3.000000e+000
      vertex -2.250000e+001  2.000000e+000  3.000000e+000
    endloop
  endfacet
  facet normal  -0.000000e+000  0.000000e+000  1.000000e+000
    outer loop
      vertex -2.250000e+001  2.000000e+000  3.000000e+000
      vertex -2.100000e+001  0.000000e+000  3.000000e+000
      vertex -2.100000e+001  2.000000e+000  3.000000e+000
    endloop
  endfacet
  facet normal -9.999999e-001  -0.000000e+000  0.000000e+000
    outer loop
      vertex -2.100000e+001  0.000000e+000  9.700000e+001
      vertex -2.100000e+001  2.000000e+000  9.700000e+001
      vertex -2.100000e+001  0.000000e+000  3.000000e+000
    endloop
  endfacet
  facet normal -9.999999e-001  0.000000e+000  0.000000e+000
    outer loop
      vertex -2.100000e+001  0.000000e+000  3.000000e+000
      vertex -2.100000e+001  2.000000e+000  9.700000e+001
      vertex -2.100000e+001  2.000000e+000  3.000000e+000
    endloop
  endfacet
  facet normal  0.000000e+000  0.000000e+000 -1.000000e+000
    outer loop
      vertex -1.800000e+001  0.000000e+000  9.700000e+001
      vertex -1.950000e+001  0.000000e+000  9.700000e+001
      vertex -1.800000e+001  2.000000e+000  9.700000e+001
    endloop
  endfacet
  facet normal  -0.000000e+000  0.000000e+000 -1.000000e+000
    outer loop
      vertex -1.800000e+001  2.000000e+000  9.700000e+001
      vertex -1.950000e+001  0.000000e+000  9.700000e+001
      vertex -1.950000e+001  2.000000e+000  9.700000e+001
    endloop
  endfacet
  facet normal  9.999999e-001  0.000000e+000  0.000000e+000
    outer loop
      vertex -1.950000e+001  0.000000e+000  3.000000e+000
      vertex -1.950000e+001  2.000000e+000  3.000000e+000
      vertex -1.950000e+001  0.000000e+000  9.700000e+001
    endloop
  endfacet
  facet normal  9.999999e-001  -0.000000e+000  0.000000e+000
    outer loop
      vertex -1.950000e+001  0.000000e+000  9.700000e+001
      vertex -1.950000e+001  2.000000e+000  3.000000e+000
      vertex -1.950000e+001  2.000000e+000  9.700000e+001
    endloop
  endfacet
  facet normal  0.000000e+000  0.000000e+000  1.000000e+000
    outer loop
      vertex -1.950000e+001  0.000000e+000  3.000000e+000
      vertex -1.800000e+001  0.000000e+000  3.000000e+000
      vertex -1.950000e+001  2.000000e+000  3.000000e+000
    endloop
  endfacet
  facet normal  -0.000000e+000  0.000000e+000  1.000000e+000
    outer loop
      vertex -1.950000e+001  2.000000e+000  3.000000e+000
      vertex -1.800000e+001  0.000000e+000  3.000000e+000
      vertex -1.800000e+001  2.000000e+000  3.000000e+000
    endloop
  endfacet
  facet normal -9.999999e-001  -0.000000e+000  0.000000e+000
    outer loop
      vertex -1.800000e+001  0.000000e+000  9.700000e+001
      vertex -1.800000e+001  2.000000e+000  9.700000e+001
      vertex -1.800000e+001  0.000000e+000  3.000000e+000
    endloop
  endfacet
  facet normal -9.999999e-001  0.000000e+000  0.000000e+000
    outer loop
      vertex -1.800000e+001  0.000000e+000  3.000000e+000
      vertex -1.800000e+001  2.000000e+000  9.700000e+001
      vertex -1.800000e+001  2.000000e+000  3.000000e+000
    endloop
  endfacet
  facet normal  0.000000e+000  0.000000e+000 -1.000000e+000
    outer loop
      vertex -6.000000e+000  0.000000e+000  9.700000e+001
      vertex -7.500000e+000  0.000000e+000  9.700000e+001
      vertex -6.000000e+000  2.000000e+000  9.700000e+001
    endloop
  endfacet
  facet normal  -0.000000e+000  0.000000e+000 -1.000000e+000
    outer loop
      vertex -6.000000e+000  2.000000e+000  9.700000e+001
      vertex -7.500000e+000  0.000000e+000  9.700000e+001
      vertex -7.500000e+000  2.000000e+000  9.700000e+001
    endloop
  endfacet
  facet normal  9.999999e-001  0.000000e+000  0.000000e+000
    outer loop
      vertex -7.500000e+000  0.000000e+000  3.000000e+000
      vertex -7.500000e+000  2.000000e+000  3.000000e+000
      vertex -7.500000e+000  0.000000e+000  9.700000e+001
    endloop
  endfacet
  facet normal  9.999999e-001  -0.000000e+000  0.000000e+000
    outer loop
      vertex -7.500000e+000  0.000000e+000  9.700000e+001
      vertex -7.500000e+000  2.000000e+000  3.000000e+000
      vertex -7.500000e+000  2.000000e+000  9.700000e+001
    endloop
  endfacet
  facet normal  0.000000e+000  0.000000e+000  1.000000e+000
    outer loop
      vertex -7.500000e+000  0.000000e+000  3.000000e+000
      vertex -6.000000e+000  0.000000e+000  3.000000e+000
      vertex -7.500000e+000  2.000000e+000  3.000000e+000
    endloop
  endfacet
  facet normal  -0.000000e+000  0.000000e+000  1.000000e+000
    outer loop
      vertex -7.500000e+000  2.000000e+000  3.000000e+000
      vertex -6.000000e+000  0.000000e+000  3.000000e+000
      vertex -6.000000e+000  2.000000e+000  3.000000e+000
    endloop
  endfacet
  facet normal -9.999999e-001  -0.000000e+000  0.000000e+000
    outer loop
      vertex -6.000000e+000  0.000000e+000  9.700000e+001
      vertex -6.000000e+000  2.000000e+000  9.700000e+001
      vertex -6.000000e+000  0.000000e+000  3.000000e+000
    endloop
  endfacet
  facet normal -9.999999e-001  0.000000e+000  0.000000e+000
    outer loop
      vertex -6.000000e+000  0.000000e+000  3.000000e+000
      vertex -6.000000e+000  2.000000e+000  9.700000e+001
      vertex -6.000000e+000  2.000000e+000  3.000000e+000
    endloop
  endfacet
  facet normal  0.000000e+000  0.000000e+000 -1.000000e+000
    outer loop
      vertex -1.500000e+001  0.000000e+000  9.700000e+001
      vertex -1.650000e+001  0.000000e+000  9.700000e+001
      vertex -1.500000e+001  2.000000e+000  9.700000e+001
    endloop
  endfacet
  facet normal  -0.000000e+000  0.000000e+000 -1.000000e+000
    outer loop
      vertex -1.500000e+001  2.000000e+000  9.700000e+001
      vertex -1.650000e+001  0.000000e+000  9.700000e+001
      vertex -1.650000e+001  2.000000e+000  9.700000e+001
    endloop
  endfacet
  facet normal  9.999999e-001  0.000000e+000  0.000000e+000
    outer loop
      vertex -1.650000e+001  0.000000e+000  3.000000e+000
      vertex -1.650000e+001  2.000000e+000  3.000000e+000
      vertex -1.650000e+001  0.000000e+000  9.700000e+001
    endloop
  endfacet
  facet normal  9.999999e-001  -0.000000e+000  0.000000e+000
    outer loop
      vertex -1.650000e+001  0.000000e+000  9.700000e+001
      vertex -1.650000e+001  2.000000e+000  3.000000e+000
      vertex -1.650000e+001  2.000000e+000  9.700000e+001
    endloop
  endfacet
  facet normal  0.000000e+000  0.000000e+000  1.000000e+000
    outer loop
      vertex -1.650000e+001  0.000000e+000  3.000000e+000
      vertex -1.500000e+001  0.000000e+000  3.000000e+000
      vertex -1.650000e+001  2.000000e+000  3.000000e+000
    endloop
  endfacet
  facet normal  -0.000000e+000  0.000000e+000  1.000000e+000
    outer loop
      vertex -1.650000e+001  2.000000e+000  3.000000e+000
      vertex -1.500000e+001  0.000000e+000  3.000000e+000
      vertex -1.500000e+001  2.000000e+000  3.000000e+000
    endloop
  endfacet
  facet normal -9.999999e-001  -0.000000e+000  0.000000e+000
    outer loop
      vertex -1.500000e+001  0.000000e+000  9.700000e+001
      vertex -1.500000e+001  2.000000e+000  9.700000e+001
      vertex -1.500000e+001  0.000000e+000  3.000000e+000
    endloop
  endfacet
  facet normal -9.999999e-001  0.000000e+000  0.000000e+000
    outer loop
      vertex -1.500000e+001  0.000000e+000  3.000000e+000
      vertex -1.500000e+001  2.000000e+000  9.700000e+001
      vertex -1.500000e+001  2.000000e+000  3.000000e+000
    endloop
  endfacet
  facet normal  0.000000e+000  0.000000e+000 -1.000000e+000
    outer loop
      vertex -1.200000e+001  0.000000e+000  9.700000e+001
      vertex -1.350000e+001  0.000000e+000  9.700000e+001
      vertex -1.200000e+001  2.000000e+000  9.700000e+001
    endloop
  endfacet
  facet normal  -0.000000e+000  0.000000e+000 -1.000000e+000
    outer loop
      vertex -1.200000e+001  2.000000e+000  9.700000e+001
      vertex -1.350000e+001  0.000000e+000  9.700000e+001
      vertex -1.350000e+001  2.000000e+000  9.700000e+001
    endloop
  endfacet
  facet normal  9.999999e-001  0.000000e+000  0.000000e+000
    outer loop
      vertex -1.350000e+001  0.000000e+000  3.000000e+000
      vertex -1.350000e+001  2.000000e+000  3.000000e+000
      vertex -1.350000e+001  0.000000e+000  9.700000e+001
    endloop
  endfacet
  facet normal  9.999999e-001  -0.000000e+000  0.000000e+000
    outer loop
      vertex -1.350000e+001  0.000000e+000  9.700000e+001
      vertex -1.350000e+001  2.000000e+000  3.000000e+000
      vertex -1.350000e+001  2.000000e+000  9.700000e+001
    endloop
  endfacet
  facet normal  0.000000e+000  0.000000e+000  1.000000e+000
    outer loop
      vertex -1.350000e+001  0.000000e+000  3.000000e+000
      vertex -1.200000e+001  0.000000e+000  3.000000e+000
      vertex -1.350000e+001  2.000000e+000  3.000000e+000
    endloop
  endfacet
  facet normal  -0.000000e+000  0.000000e+000  1.000000e+000
    outer loop
      vertex -1.350000e+001  2.000000e+000  3.000000e+000
      vertex -1.200000e+001  0.000000e+000  3.000000e+000
      vertex -1.200000e+001  2.000000e+000  3.000000e+000
    endloop
  endfacet
  facet normal -9.999999e-001  -0.000000e+000  0.000000e+000
    outer loop
      vertex -1.200000e+001  0.000000e+000  9.700000e+001
      vertex -1.200000e+001  2.000000e+000  9.700000e+001
      vertex -1.200000e+001  0.000000e+000  3.000000e+000
    endloop
  endfacet
  facet normal -9.999999e-001  0.000000e+000  0.000000e+000
    outer loop
      vertex -1.200000e+001  0.000000e+000  3.000000e+000
      vertex -1.200000e+001  2.000000e+000  9.700000e+001
      vertex -1.200000e+001  2.000000e+000  3.000000e+000
    endloop
  endfacet
  facet normal  0.000000e+000  0.000000e+000 -1.000000e+000
    outer loop
      vertex -9.000000e+000  0.000000e+000  9.700000e+001
      vertex -1.050000e+001  0.000000e+000  9.700000e+001
      vertex -9.000000e+000  2.000000e+000  9.700000e+001
    endloop
  endfacet
  facet normal  -0.000000e+000  0.000000e+000 -1.000000e+000
    outer loop
      vertex -9.000000e+000  2.000000e+000  9.700000e+001
      vertex -1.050000e+001  0.000000e+000  9.700000e+001
      vertex -1.050000e+001  2.000000e+000  9.700000e+001
    endloop
  endfacet
  facet normal  9.999999e-001  0.000000e+000  0.000000e+000
    outer loop
      vertex -1.050000e+001  0.000000e+000  3.000000e+000
      vertex -1.050000e+001  2.000000e+000  3.000000e+000
      vertex -1.050000e+001  0.000000e+000  9.700000e+001
    endloop
  endfacet
  facet normal  9.999999e-001  -0.000000e+000  0.000000e+000
    outer loop
      vertex -1.050000e+001  0.000000e+000  9.700000e+001
      vertex -1.050000e+001  2.000000e+000  3.000000e+000
      vertex -1.050000e+001  2.000000e+000  9.700000e+001
    endloop
  endfacet
  facet normal  0.000000e+000  0.000000e+000  1.000000e+000
    outer loop
      vertex -1.050000e+001  0.000000e+000  3.000000e+000
      vertex -9.000000e+000  0.000000e+000  3.000000e+000
      vertex -1.050000e+001  2.000000e+000  3.000000e+000
    endloop
  endfacet
  facet normal  -0.000000e+000  0.000000e+000  1.000000e+000
    outer loop
      vertex -1.050000e+001  2.000000e+000  3.000000e+000
      vertex -9.000000e+000  0.000000e+000  3.000000e+000
      vertex -9.000000e+000  2.000000e+000  3.000000e+000
    endloop
  endfacet
  facet normal -9.999999e-001  -0.000000e+000  0.000000e+000
    outer loop
      vertex -9.000000e+000  0.000000e+000  9.700000e+001
      vertex -9.000000e+000  2.000000e+000  9.700000e+001
      vertex -9.000000e+000  0.000000e+000  3.000000e+000
    endloop
  endfacet
  facet normal -9.999999e-001  0.000000e+000  0.000000e+000
    outer loop
      vertex -9.000000e+000  0.000000e+000  3.000000e+000
      vertex -9.000000e+000  2.000000e+000  9.700000e+001
      vertex -9.000000e+000  2.000000e+000  3.000000e+000
    endloop
  endfacet
  facet normal  0.000000e+000  0.000000e+000 -1.000000e+000
    outer loop
      vertex -3.000000e+000  0.000000e+000  9.700000e+001
      vertex -4.500000e+000  0.000000e+000  9.700000e+001
      vertex -3.000000e+000  2.000000e+000  9.700000e+001
    endloop
  endfacet
  facet normal  -0.000000e+000  0.000000e+000 -1.000000e+000
    outer loop
      vertex -3.000000e+000  2.000000e+000  9.700000e+001
      vertex -4.500000e+000  0.000000e+000  9.700000e+001
      vertex -4.500000e+000  2.000000e+000  9.700000e+001
    endloop
  endfacet
  facet normal  9.999999e-001  0.000000e+000  0.000000e+000
    outer loop
      vertex -4.500000e+000  0.000000e+000  3.000000e+000
      vertex -4.500000e+000  2.000000e+000  3.000000e+000
      vertex -4.500000e+000  0.000000e+000  9.700000e+001
    endloop
  endfacet
  facet normal  9.999999e-001  -0.000000e+000  0.000000e+000
    outer loop
      vertex -4.500000e+000  0.000000e+000  9.700000e+001
      vertex -4.500000e+000  2.000000e+000  3.000000e+000
      vertex -4.500000e+000  2.000000e+000  9.700000e+001
    endloop
  endfacet
  facet normal  0.000000e+000  0.000000e+000  1.000000e+000
    outer loop
      vertex -4.500000e+000  0.000000e+000  3.000000e+000
      vertex -3.000000e+000  0.000000e+000  3.000000e+000
      vertex -4.500000e+000  2.000000e+000  3.000000e+000
    endloop
  endfacet
  facet normal  -0.000000e+000  0.000000e+000  1.000000e+000
    outer loop
      vertex -4.500000e+000  2.000000e+000  3.000000e+000
      vertex -3.000000e+000  0.000000e+000  3.000000e+000
      vertex -3.000000e+000  2.000000e+000  3.000000e+000
    endloop
  endfacet
  facet normal -9.999999e-001  -0.000000e+000  0.000000e+000
    outer loop
      vertex -3.000000e+000  0.000000e+000  9.700000e+001
      vertex -3.000000e+000  2.000000e+000  9.700000e+001
      vertex -3.000000e+000  0.000000e+000  3.000000e+000
    endloop
  endfacet
  facet normal -9.999999e-001  0.000000e+000  0.000000e+000
    outer loop
      vertex -3.000000e+000  0.000000e+000  3.000000e+000
      vertex -3.000000e+000  2.000000e+000  9.700000e+001
      vertex -3.000000e+000  2.000000e+000  3.000000e+000
    endloop
  endfacet
endsolid CATIA STL
