solid CATIA STL
  facet normal  0.000000e+000 -9.999999e-001  0.000000e+000
    outer loop
      vertex -2.400000e+001  0.000000e+000  3.894155e+001
      vertex -2.302075e+001  0.000000e+000  3.844235e+001
      vertex -1.260000e+001  0.000000e+000  3.865000e+001
    endloop
  endfacet
  facet normal  0.000000e+000 -1.000000e+000  0.000000e+000
    outer loop
      vertex -1.260000e+001  0.000000e+000  2.850000e+000
      vertex -4.600000e+000  0.000000e+000  2.850000e+000
      vertex -4.600000e+000  0.000000e+000  3.715000e+001
    endloop
  endfacet
  facet normal  -0.000000e+000 -1.000000e+000  0.000000e+000
    outer loop
      vertex -1.260000e+001  0.000000e+000  2.850000e+000
      vertex -4.600000e+000  0.000000e+000  3.715000e+001
      vertex -1.260000e+001  0.000000e+000  3.715000e+001
    endloop
  endfacet
  facet normal  0.000000e+000 -1.000000e+000  -0.000000e+000
    outer loop
      vertex -1.260000e+001  0.000000e+000  2.850000e+000
      vertex -1.260000e+001  0.000000e+000  3.715000e+001
      vertex -1.450000e+001  0.000000e+000  1.600000e+001
    endloop
  endfacet
  facet normal  0.000000e+000 -1.000000e+000  -0.000000e+000
    outer loop
      vertex -1.260000e+001  0.000000e+000  2.850000e+000
      vertex -1.450000e+001  0.000000e+000  1.600000e+001
      vertex -1.453661e+001  0.000000e+000  1.490146e+001
    endloop
  endfacet
  facet normal  0.000000e+000 -1.000000e+000  -0.000000e+000
    outer loop
      vertex -1.260000e+001  0.000000e+000  2.850000e+000
      vertex -1.453661e+001  0.000000e+000  1.490146e+001
      vertex -1.464628e+001  0.000000e+000  1.380779e+001
    endloop
  endfacet
  facet normal  0.000000e+000 -1.000000e+000  -0.000000e+000
    outer loop
      vertex -1.260000e+001  0.000000e+000  2.850000e+000
      vertex -1.464628e+001  0.000000e+000  1.380779e+001
      vertex -1.482852e+001  0.000000e+000  1.272385e+001
    endloop
  endfacet
  facet normal  0.000000e+000 -1.000000e+000  -0.000000e+000
    outer loop
      vertex -1.260000e+001  0.000000e+000  2.850000e+000
      vertex -1.482852e+001  0.000000e+000  1.272385e+001
      vertex -1.508252e+001  0.000000e+000  1.165444e+001
    endloop
  endfacet
  facet normal  0.000000e+000 -1.000000e+000  -0.000000e+000
    outer loop
      vertex -1.260000e+001  0.000000e+000  2.850000e+000
      vertex -1.508252e+001  0.000000e+000  1.165444e+001
      vertex -1.540716e+001  0.000000e+000  1.060432e+001
    endloop
  endfacet
  facet normal  0.000000e+000 -1.000000e+000  -0.000000e+000
    outer loop
      vertex -1.260000e+001  0.000000e+000  2.850000e+000
      vertex -1.540716e+001  0.000000e+000  1.060432e+001
      vertex -1.580099e+001  0.000000e+000  9.578149e+000
    endloop
  endfacet
  facet normal  0.000000e+000 -9.999999e-001  -0.000000e+000
    outer loop
      vertex -1.260000e+001  0.000000e+000  2.850000e+000
      vertex -1.580099e+001  0.000000e+000  9.578149e+000
      vertex -1.626227e+001  0.000000e+000  8.580472e+000
    endloop
  endfacet
  facet normal  0.000000e+000 -1.000000e+000  -0.000000e+000
    outer loop
      vertex -1.260000e+001  0.000000e+000  2.850000e+000
      vertex -1.626227e+001  0.000000e+000  8.580472e+000
      vertex -1.678895e+001  0.000000e+000  7.615720e+000
    endloop
  endfacet
  facet normal  0.000000e+000 -1.000000e+000  -0.000000e+000
    outer loop
      vertex -1.260000e+001  0.000000e+000  2.850000e+000
      vertex -1.678895e+001  0.000000e+000  7.615720e+000
      vertex -1.737870e+001  0.000000e+000  6.688173e+000
    endloop
  endfacet
  facet normal  0.000000e+000 -1.000000e+000  -0.000000e+000
    outer loop
      vertex -1.260000e+001  0.000000e+000  2.850000e+000
      vertex -1.737870e+001  0.000000e+000  6.688173e+000
      vertex -1.802889e+001  0.000000e+000  5.801950e+000
    endloop
  endfacet
  facet normal  0.000000e+000 -1.000000e+000  -0.000000e+000
    outer loop
      vertex -1.260000e+001  0.000000e+000  2.850000e+000
      vertex -1.802889e+001  0.000000e+000  5.801950e+000
      vertex -1.873664e+001  0.000000e+000  4.960981e+000
    endloop
  endfacet
  facet normal  0.000000e+000 -1.000000e+000  -0.000000e+000
    outer loop
      vertex -1.260000e+001  0.000000e+000  2.850000e+000
      vertex -1.873664e+001  0.000000e+000  4.960981e+000
      vertex -1.949881e+001  0.000000e+000  4.168999e+000
    endloop
  endfacet
  facet normal  0.000000e+000 -9.999999e-001  -0.000000e+000
    outer loop
      vertex -1.260000e+001  0.000000e+000  2.850000e+000
      vertex -1.949881e+001  0.000000e+000  4.168999e+000
      vertex -2.031202e+001  0.000000e+000  3.429518e+000
    endloop
  endfacet
  facet normal  0.000000e+000 -1.000000e+000  -0.000000e+000
    outer loop
      vertex -1.260000e+001  0.000000e+000  2.850000e+000
      vertex -2.031202e+001  0.000000e+000  3.429518e+000
      vertex -2.117266e+001  0.000000e+000  2.745821e+000
    endloop
  endfacet
  facet normal  0.000000e+000 -1.000000e+000  0.000000e+000
    outer loop
      vertex  0.000000e+000  0.000000e+000  4.000000e+001
      vertex -2.400000e+001  0.000000e+000  4.000000e+001
      vertex -2.400000e+001  0.000000e+000  3.894155e+001
    endloop
  endfacet
  facet normal  0.000000e+000 -1.000000e+000  0.000000e+000
    outer loop
      vertex  0.000000e+000  0.000000e+000  4.000000e+001
      vertex -2.400000e+001  0.000000e+000  3.894155e+001
      vertex -1.260000e+001  0.000000e+000  3.865000e+001
    endloop
  endfacet
  facet normal  0.000000e+000 -9.999999e-001  0.000000e+000
    outer loop
      vertex  0.000000e+000  0.000000e+000  4.000000e+001
      vertex -1.260000e+001  0.000000e+000  3.865000e+001
      vertex -4.600000e+000  0.000000e+000  3.865000e+001
    endloop
  endfacet
  facet normal  0.000000e+000 -1.000000e+000  0.000000e+000
    outer loop
      vertex  0.000000e+000  0.000000e+000  4.000000e+001
      vertex -4.600000e+000  0.000000e+000  3.865000e+001
      vertex -4.600000e+000  0.000000e+000  3.715000e+001
    endloop
  endfacet
  facet normal  0.000000e+000 -1.000000e+000  0.000000e+000
    outer loop
      vertex  0.000000e+000  0.000000e+000  4.000000e+001
      vertex -4.600000e+000  0.000000e+000  3.715000e+001
      vertex -4.600000e+000  0.000000e+000  2.850000e+000
    endloop
  endfacet
  facet normal  0.000000e+000 -1.000000e+000  0.000000e+000
    outer loop
      vertex  0.000000e+000  0.000000e+000  4.000000e+001
      vertex -4.600000e+000  0.000000e+000  2.850000e+000
      vertex -4.600000e+000  0.000000e+000  1.350000e+000
    endloop
  endfacet
  facet normal  0.000000e+000 -1.000000e+000  0.000000e+000
    outer loop
      vertex  0.000000e+000  0.000000e+000  4.000000e+001
      vertex -4.600000e+000  0.000000e+000  1.350000e+000
      vertex  0.000000e+000  0.000000e+000  0.000000e+000
    endloop
  endfacet
  facet normal  0.000000e+000 -1.000000e+000  -0.000000e+000
    outer loop
      vertex -1.260000e+001  0.000000e+000  3.715000e+001
      vertex -1.260000e+001  0.000000e+000  3.865000e+001
      vertex -2.302075e+001  0.000000e+000  3.844235e+001
    endloop
  endfacet
  facet normal  0.000000e+000 -1.000000e+000  0.000000e+000
    outer loop
      vertex -1.260000e+001  0.000000e+000  3.715000e+001
      vertex -2.302075e+001  0.000000e+000  3.844235e+001
      vertex -2.207690e+001  0.000000e+000  3.787906e+001
    endloop
  endfacet
  facet normal  0.000000e+000 -1.000000e+000  0.000000e+000
    outer loop
      vertex -1.260000e+001  0.000000e+000  3.715000e+001
      vertex -2.207690e+001  0.000000e+000  3.787906e+001
      vertex -2.117266e+001  0.000000e+000  3.725418e+001
    endloop
  endfacet
  facet normal  0.000000e+000 -1.000000e+000  0.000000e+000
    outer loop
      vertex -1.260000e+001  0.000000e+000  3.715000e+001
      vertex -2.117266e+001  0.000000e+000  3.725418e+001
      vertex -2.031202e+001  0.000000e+000  3.657048e+001
    endloop
  endfacet
  facet normal  0.000000e+000 -9.999999e-001  0.000000e+000
    outer loop
      vertex -1.260000e+001  0.000000e+000  3.715000e+001
      vertex -2.031202e+001  0.000000e+000  3.657048e+001
      vertex -1.949881e+001  0.000000e+000  3.583100e+001
    endloop
  endfacet
  facet normal  0.000000e+000 -9.999999e-001  0.000000e+000
    outer loop
      vertex -1.260000e+001  0.000000e+000  3.715000e+001
      vertex -1.949881e+001  0.000000e+000  3.583100e+001
      vertex -1.873664e+001  0.000000e+000  3.503902e+001
    endloop
  endfacet
  facet normal  0.000000e+000 -1.000000e+000  0.000000e+000
    outer loop
      vertex -1.260000e+001  0.000000e+000  3.715000e+001
      vertex -1.873664e+001  0.000000e+000  3.503902e+001
      vertex -1.802889e+001  0.000000e+000  3.419805e+001
    endloop
  endfacet
  facet normal  0.000000e+000 -1.000000e+000  0.000000e+000
    outer loop
      vertex -1.260000e+001  0.000000e+000  3.715000e+001
      vertex -1.802889e+001  0.000000e+000  3.419805e+001
      vertex -1.737870e+001  0.000000e+000  3.331182e+001
    endloop
  endfacet
  facet normal  0.000000e+000 -1.000000e+000  0.000000e+000
    outer loop
      vertex -1.260000e+001  0.000000e+000  3.715000e+001
      vertex -1.737870e+001  0.000000e+000  3.331182e+001
      vertex -1.678895e+001  0.000000e+000  3.238428e+001
    endloop
  endfacet
  facet normal  0.000000e+000 -1.000000e+000  0.000000e+000
    outer loop
      vertex -1.260000e+001  0.000000e+000  3.715000e+001
      vertex -1.678895e+001  0.000000e+000  3.238428e+001
      vertex -1.626227e+001  0.000000e+000  3.141953e+001
    endloop
  endfacet
  facet normal  0.000000e+000 -1.000000e+000  0.000000e+000
    outer loop
      vertex -1.260000e+001  0.000000e+000  3.715000e+001
      vertex -1.626227e+001  0.000000e+000  3.141953e+001
      vertex -1.580099e+001  0.000000e+000  3.042185e+001
    endloop
  endfacet
  facet normal  0.000000e+000 -9.999999e-001  0.000000e+000
    outer loop
      vertex -1.260000e+001  0.000000e+000  3.715000e+001
      vertex -1.580099e+001  0.000000e+000  3.042185e+001
      vertex -1.540716e+001  0.000000e+000  2.939568e+001
    endloop
  endfacet
  facet normal  0.000000e+000 -1.000000e+000  0.000000e+000
    outer loop
      vertex -1.260000e+001  0.000000e+000  3.715000e+001
      vertex -1.540716e+001  0.000000e+000  2.939568e+001
      vertex -1.508252e+001  0.000000e+000  2.834556e+001
    endloop
  endfacet
  facet normal  0.000000e+000 -1.000000e+000  0.000000e+000
    outer loop
      vertex -1.260000e+001  0.000000e+000  3.715000e+001
      vertex -1.508252e+001  0.000000e+000  2.834556e+001
      vertex -1.482852e+001  0.000000e+000  2.727615e+001
    endloop
  endfacet
  facet normal  0.000000e+000 -1.000000e+000  0.000000e+000
    outer loop
      vertex -1.260000e+001  0.000000e+000  3.715000e+001
      vertex -1.482852e+001  0.000000e+000  2.727615e+001
      vertex -1.464628e+001  0.000000e+000  2.619221e+001
    endloop
  endfacet
  facet normal  0.000000e+000 -1.000000e+000  0.000000e+000
    outer loop
      vertex -1.260000e+001  0.000000e+000  3.715000e+001
      vertex -1.464628e+001  0.000000e+000  2.619221e+001
      vertex -1.453661e+001  0.000000e+000  2.509855e+001
    endloop
  endfacet
  facet normal  0.000000e+000 -1.000000e+000  0.000000e+000
    outer loop
      vertex -1.260000e+001  0.000000e+000  3.715000e+001
      vertex -1.453661e+001  0.000000e+000  2.509855e+001
      vertex -1.450000e+001  0.000000e+000  2.400000e+001
    endloop
  endfacet
  facet normal  0.000000e+000 -9.999999e-001  0.000000e+000
    outer loop
      vertex -1.260000e+001  0.000000e+000  3.715000e+001
      vertex -1.450000e+001  0.000000e+000  2.400000e+001
      vertex -1.450000e+001  0.000000e+000  1.600000e+001
    endloop
  endfacet
  facet normal  0.000000e+000 -1.000000e+000  -0.000000e+000
    outer loop
      vertex -1.260000e+001  0.000000e+000  1.350000e+000
      vertex -1.260000e+001  0.000000e+000  2.850000e+000
      vertex -2.117266e+001  0.000000e+000  2.745821e+000
    endloop
  endfacet
  facet normal  0.000000e+000 -1.000000e+000  -0.000000e+000
    outer loop
      vertex -1.260000e+001  0.000000e+000  1.350000e+000
      vertex -2.117266e+001  0.000000e+000  2.745821e+000
      vertex -2.207690e+001  0.000000e+000  2.120939e+000
    endloop
  endfacet
  facet normal  0.000000e+000 -1.000000e+000  -0.000000e+000
    outer loop
      vertex -1.260000e+001  0.000000e+000  1.350000e+000
      vertex -2.207690e+001  0.000000e+000  2.120939e+000
      vertex -2.302075e+001  0.000000e+000  1.557649e+000
    endloop
  endfacet
  facet normal  0.000000e+000 -1.000000e+000  -0.000000e+000
    outer loop
      vertex -1.260000e+001  0.000000e+000  1.350000e+000
      vertex -2.302075e+001  0.000000e+000  1.557649e+000
      vertex -2.400000e+001  0.000000e+000  1.058447e+000
    endloop
  endfacet
  facet normal  0.000000e+000 -1.000000e+000  0.000000e+000
    outer loop
      vertex -1.260000e+001  0.000000e+000  1.350000e+000
      vertex -2.400000e+001  0.000000e+000  1.058447e+000
      vertex -2.400000e+001  0.000000e+000  0.000000e+000
    endloop
  endfacet
  facet normal  0.000000e+000 -1.000000e+000  0.000000e+000
    outer loop
      vertex -1.260000e+001  0.000000e+000  1.350000e+000
      vertex -2.400000e+001  0.000000e+000  0.000000e+000
      vertex  0.000000e+000  0.000000e+000  0.000000e+000
    endloop
  endfacet
  facet normal  0.000000e+000 -1.000000e+000  0.000000e+000
    outer loop
      vertex -1.260000e+001  0.000000e+000  1.350000e+000
      vertex  0.000000e+000  0.000000e+000  0.000000e+000
      vertex -4.600000e+000  0.000000e+000  1.350000e+000
    endloop
  endfacet
  facet normal  0.000000e+000 -9.999999e-001  0.000000e+000
    outer loop
      vertex -1.260000e+001 -3.100000e+000  9.500000e-001
      vertex -4.600000e+000 -3.100000e+000  9.500000e-001
      vertex -1.260000e+001 -3.100000e+000  2.850000e+000
    endloop
  endfacet
  facet normal  0.000000e+000 -9.999999e-001  0.000000e+000
    outer loop
      vertex -1.260000e+001 -3.100000e+000  2.850000e+000
      vertex -4.600000e+000 -3.100000e+000  9.500000e-001
      vertex -4.600000e+000 -3.100000e+000  2.850000e+000
    endloop
  endfacet
  facet normal  0.000000e+000 -9.999999e-001  0.000000e+000
    outer loop
      vertex -1.260000e+001 -3.100000e+000  3.715000e+001
      vertex -4.600000e+000 -3.100000e+000  3.715000e+001
      vertex -1.260000e+001 -3.100000e+000  3.905000e+001
    endloop
  endfacet
  facet normal  0.000000e+000 -9.999999e-001  0.000000e+000
    outer loop
      vertex -1.260000e+001 -3.100000e+000  3.905000e+001
      vertex -4.600000e+000 -3.100000e+000  3.715000e+001
      vertex -4.600000e+000 -3.100000e+000  3.905000e+001
    endloop
  endfacet
  facet normal  9.999999e-001  0.000000e+000  0.000000e+000
    outer loop
      vertex -4.600000e+000 -3.100000e+000  3.905000e+001
      vertex -4.600000e+000 -3.100000e+000  3.715000e+001
      vertex -4.600000e+000 -2.100000e+000  3.905000e+001
    endloop
  endfacet
  facet normal  1.000000e+000  0.000000e+000  0.000000e+000
    outer loop
      vertex -4.600000e+000 -2.100000e+000  3.905000e+001
      vertex -4.600000e+000 -3.100000e+000  3.715000e+001
      vertex -4.600000e+000 -2.100000e+000  3.865000e+001
    endloop
  endfacet
  facet normal  1.000000e+000  0.000000e+000  0.000000e+000
    outer loop
      vertex -4.600000e+000 -3.100000e+000  3.715000e+001
      vertex -4.600000e+000  0.000000e+000  3.715000e+001
      vertex -4.600000e+000 -2.100000e+000  3.865000e+001
    endloop
  endfacet
  facet normal  1.000000e+000  -0.000000e+000  0.000000e+000
    outer loop
      vertex -4.600000e+000 -2.100000e+000  3.865000e+001
      vertex -4.600000e+000  0.000000e+000  3.715000e+001
      vertex -4.600000e+000  0.000000e+000  3.865000e+001
    endloop
  endfacet
  facet normal  0.000000e+000  0.000000e+000 -1.000000e+000
    outer loop
      vertex -1.260000e+001 -3.100000e+000  3.715000e+001
      vertex -1.260000e+001  0.000000e+000  3.715000e+001
      vertex -4.600000e+000 -3.100000e+000  3.715000e+001
    endloop
  endfacet
  facet normal  0.000000e+000  0.000000e+000 -1.000000e+000
    outer loop
      vertex -4.600000e+000 -3.100000e+000  3.715000e+001
      vertex -1.260000e+001  0.000000e+000  3.715000e+001
      vertex -4.600000e+000  0.000000e+000  3.715000e+001
    endloop
  endfacet
  facet normal -9.999999e-001  0.000000e+000  0.000000e+000
    outer loop
      vertex -1.260000e+001 -3.100000e+000  3.715000e+001
      vertex -1.260000e+001 -3.100000e+000  3.905000e+001
      vertex -1.260000e+001 -2.100000e+000  3.905000e+001
    endloop
  endfacet
  facet normal -1.000000e+000  0.000000e+000  -0.000000e+000
    outer loop
      vertex -1.260000e+001 -3.100000e+000  3.715000e+001
      vertex -1.260000e+001 -2.100000e+000  3.905000e+001
      vertex -1.260000e+001 -2.100000e+000  3.865000e+001
    endloop
  endfacet
  facet normal -1.000000e+000  0.000000e+000  -0.000000e+000
    outer loop
      vertex -1.260000e+001 -3.100000e+000  3.715000e+001
      vertex -1.260000e+001 -2.100000e+000  3.865000e+001
      vertex -1.260000e+001  0.000000e+000  3.865000e+001
    endloop
  endfacet
  facet normal -1.000000e+000  0.000000e+000  -0.000000e+000
    outer loop
      vertex -1.260000e+001 -3.100000e+000  3.715000e+001
      vertex -1.260000e+001  0.000000e+000  3.865000e+001
      vertex -1.260000e+001  0.000000e+000  3.715000e+001
    endloop
  endfacet
  facet normal -9.999999e-001  0.000000e+000  0.000000e+000
    outer loop
      vertex -1.260000e+001 -3.100000e+000  9.500000e-001
      vertex -1.260000e+001 -3.100000e+000  2.850000e+000
      vertex -1.260000e+001 -2.100000e+000  9.500000e-001
    endloop
  endfacet
  facet normal -1.000000e+000  0.000000e+000  0.000000e+000
    outer loop
      vertex -1.260000e+001 -2.100000e+000  9.500000e-001
      vertex -1.260000e+001 -3.100000e+000  2.850000e+000
      vertex -1.260000e+001 -2.100000e+000  1.350000e+000
    endloop
  endfacet
  facet normal -1.000000e+000  -0.000000e+000  0.000000e+000
    outer loop
      vertex -1.260000e+001 -3.100000e+000  2.850000e+000
      vertex -1.260000e+001  0.000000e+000  2.850000e+000
      vertex -1.260000e+001 -2.100000e+000  1.350000e+000
    endloop
  endfacet
  facet normal -1.000000e+000  0.000000e+000  0.000000e+000
    outer loop
      vertex -1.260000e+001 -2.100000e+000  1.350000e+000
      vertex -1.260000e+001  0.000000e+000  2.850000e+000
      vertex -1.260000e+001  0.000000e+000  1.350000e+000
    endloop
  endfacet
  facet normal  9.999999e-001  0.000000e+000  0.000000e+000
    outer loop
      vertex -4.600000e+000 -3.100000e+000  2.850000e+000
      vertex -4.600000e+000 -3.100000e+000  9.500000e-001
      vertex -4.600000e+000 -2.100000e+000  9.500000e-001
    endloop
  endfacet
  facet normal  1.000000e+000  0.000000e+000  -0.000000e+000
    outer loop
      vertex -4.600000e+000 -3.100000e+000  2.850000e+000
      vertex -4.600000e+000 -2.100000e+000  9.500000e-001
      vertex -4.600000e+000 -2.100000e+000  1.350000e+000
    endloop
  endfacet
  facet normal  1.000000e+000  0.000000e+000  -0.000000e+000
    outer loop
      vertex -4.600000e+000 -3.100000e+000  2.850000e+000
      vertex -4.600000e+000 -2.100000e+000  1.350000e+000
      vertex -4.600000e+000  0.000000e+000  1.350000e+000
    endloop
  endfacet
  facet normal  1.000000e+000  0.000000e+000  -0.000000e+000
    outer loop
      vertex -4.600000e+000 -3.100000e+000  2.850000e+000
      vertex -4.600000e+000  0.000000e+000  1.350000e+000
      vertex -4.600000e+000  0.000000e+000  2.850000e+000
    endloop
  endfacet
  facet normal  0.000000e+000  0.000000e+000  1.000000e+000
    outer loop
      vertex -4.600000e+000 -3.100000e+000  2.850000e+000
      vertex -4.600000e+000  0.000000e+000  2.850000e+000
      vertex -1.260000e+001 -3.100000e+000  2.850000e+000
    endloop
  endfacet
  facet normal  0.000000e+000  0.000000e+000  1.000000e+000
    outer loop
      vertex -1.260000e+001 -3.100000e+000  2.850000e+000
      vertex -4.600000e+000  0.000000e+000  2.850000e+000
      vertex -1.260000e+001  0.000000e+000  2.850000e+000
    endloop
  endfacet
  facet normal  0.000000e+000  1.000000e+000  0.000000e+000
    outer loop
      vertex -4.600000e+000 -2.100000e+000  9.500000e-001
      vertex -1.260000e+001 -2.100000e+000  9.500000e-001
      vertex -4.600000e+000 -2.100000e+000  1.350000e+000
    endloop
  endfacet
  facet normal  0.000000e+000  1.000000e+000  0.000000e+000
    outer loop
      vertex -4.600000e+000 -2.100000e+000  1.350000e+000
      vertex -1.260000e+001 -2.100000e+000  9.500000e-001
      vertex -1.260000e+001 -2.100000e+000  1.350000e+000
    endloop
  endfacet
  facet normal  0.000000e+000  1.000000e+000  0.000000e+000
    outer loop
      vertex -4.600000e+000 -2.100000e+000  3.865000e+001
      vertex -1.260000e+001 -2.100000e+000  3.865000e+001
      vertex -4.600000e+000 -2.100000e+000  3.905000e+001
    endloop
  endfacet
  facet normal  0.000000e+000  1.000000e+000  0.000000e+000
    outer loop
      vertex -4.600000e+000 -2.100000e+000  3.905000e+001
      vertex -1.260000e+001 -2.100000e+000  3.865000e+001
      vertex -1.260000e+001 -2.100000e+000  3.905000e+001
    endloop
  endfacet
  facet normal  0.000000e+000  0.000000e+000 -1.000000e+000
    outer loop
      vertex -4.600000e+000 -2.100000e+000  1.350000e+000
      vertex -1.260000e+001 -2.100000e+000  1.350000e+000
      vertex -4.600000e+000  0.000000e+000  1.350000e+000
    endloop
  endfacet
  facet normal  -0.000000e+000  0.000000e+000 -1.000000e+000
    outer loop
      vertex -4.600000e+000  0.000000e+000  1.350000e+000
      vertex -1.260000e+001 -2.100000e+000  1.350000e+000
      vertex -1.260000e+001  0.000000e+000  1.350000e+000
    endloop
  endfacet
  facet normal  0.000000e+000  0.000000e+000  1.000000e+000
    outer loop
      vertex -4.600000e+000 -2.100000e+000  3.865000e+001
      vertex -4.600000e+000  0.000000e+000  3.865000e+001
      vertex -1.260000e+001 -2.100000e+000  3.865000e+001
    endloop
  endfacet
  facet normal  0.000000e+000  0.000000e+000  1.000000e+000
    outer loop
      vertex -1.260000e+001 -2.100000e+000  3.865000e+001
      vertex -4.600000e+000  0.000000e+000  3.865000e+001
      vertex -1.260000e+001  0.000000e+000  3.865000e+001
    endloop
  endfacet
  facet normal  0.000000e+000  0.000000e+000 -1.000000e+000
    outer loop
      vertex -4.600000e+000 -3.100000e+000  9.500000e-001
      vertex -1.260000e+001 -3.100000e+000  9.500000e-001
      vertex -4.600000e+000 -2.100000e+000  9.500000e-001
    endloop
  endfacet
  facet normal  -0.000000e+000  0.000000e+000 -1.000000e+000
    outer loop
      vertex -4.600000e+000 -2.100000e+000  9.500000e-001
      vertex -1.260000e+001 -3.100000e+000  9.500000e-001
      vertex -1.260000e+001 -2.100000e+000  9.500000e-001
    endloop
  endfacet
  facet normal  0.000000e+000  0.000000e+000  1.000000e+000
    outer loop
      vertex -4.600000e+000 -3.100000e+000  3.905000e+001
      vertex -4.600000e+000 -2.100000e+000  3.905000e+001
      vertex -1.260000e+001 -3.100000e+000  3.905000e+001
    endloop
  endfacet
  facet normal  0.000000e+000  0.000000e+000  1.000000e+000
    outer loop
      vertex -1.260000e+001 -3.100000e+000  3.905000e+001
      vertex -4.600000e+000 -2.100000e+000  3.905000e+001
      vertex -1.260000e+001 -2.100000e+000  3.905000e+001
    endloop
  endfacet
  facet normal  0.000000e+000  9.999999e-001  0.000000e+000
    outer loop
      vertex -2.400000e+001  2.000000e+000  4.000000e+001
      vertex -1.949881e+001  2.000000e+000  3.583100e+001
      vertex -2.031202e+001  2.000000e+000  3.657048e+001
    endloop
  endfacet
  facet normal  0.000000e+000  1.000000e+000  0.000000e+000
    outer loop
      vertex -2.400000e+001  2.000000e+000  4.000000e+001
      vertex -2.031202e+001  2.000000e+000  3.657048e+001
      vertex -2.117266e+001  2.000000e+000  3.725418e+001
    endloop
  endfacet
  facet normal  0.000000e+000  1.000000e+000  0.000000e+000
    outer loop
      vertex -2.400000e+001  2.000000e+000  4.000000e+001
      vertex -2.117266e+001  2.000000e+000  3.725418e+001
      vertex -2.207690e+001  2.000000e+000  3.787906e+001
    endloop
  endfacet
  facet normal  0.000000e+000  1.000000e+000  0.000000e+000
    outer loop
      vertex -2.400000e+001  2.000000e+000  4.000000e+001
      vertex -2.207690e+001  2.000000e+000  3.787906e+001
      vertex -2.302075e+001  2.000000e+000  3.844235e+001
    endloop
  endfacet
  facet normal  0.000000e+000  1.000000e+000  0.000000e+000
    outer loop
      vertex -2.400000e+001  2.000000e+000  4.000000e+001
      vertex -2.302075e+001  2.000000e+000  3.844235e+001
      vertex -2.400000e+001  2.000000e+000  3.894155e+001
    endloop
  endfacet
  facet normal  0.000000e+000  1.000000e+000  -0.000000e+000
    outer loop
      vertex  0.000000e+000  2.000000e+000  4.000000e+001
      vertex  0.000000e+000  2.000000e+000  0.000000e+000
      vertex -1.450000e+001  2.000000e+000  1.600000e+001
    endloop
  endfacet
  facet normal  0.000000e+000  1.000000e+000  0.000000e+000
    outer loop
      vertex  0.000000e+000  2.000000e+000  4.000000e+001
      vertex -1.450000e+001  2.000000e+000  1.600000e+001
      vertex -1.450000e+001  2.000000e+000  2.400000e+001
    endloop
  endfacet
  facet normal  0.000000e+000  1.000000e+000  -0.000000e+000
    outer loop
      vertex  0.000000e+000  2.000000e+000  4.000000e+001
      vertex -1.450000e+001  2.000000e+000  2.400000e+001
      vertex -1.453661e+001  2.000000e+000  2.509855e+001
    endloop
  endfacet
  facet normal  0.000000e+000  1.000000e+000  -0.000000e+000
    outer loop
      vertex  0.000000e+000  2.000000e+000  4.000000e+001
      vertex -1.453661e+001  2.000000e+000  2.509855e+001
      vertex -1.464628e+001  2.000000e+000  2.619221e+001
    endloop
  endfacet
  facet normal  0.000000e+000  1.000000e+000  -0.000000e+000
    outer loop
      vertex  0.000000e+000  2.000000e+000  4.000000e+001
      vertex -1.464628e+001  2.000000e+000  2.619221e+001
      vertex -1.482852e+001  2.000000e+000  2.727615e+001
    endloop
  endfacet
  facet normal  0.000000e+000  1.000000e+000  -0.000000e+000
    outer loop
      vertex  0.000000e+000  2.000000e+000  4.000000e+001
      vertex -1.482852e+001  2.000000e+000  2.727615e+001
      vertex -1.508252e+001  2.000000e+000  2.834556e+001
    endloop
  endfacet
  facet normal  0.000000e+000  9.999999e-001  -0.000000e+000
    outer loop
      vertex  0.000000e+000  2.000000e+000  4.000000e+001
      vertex -1.508252e+001  2.000000e+000  2.834556e+001
      vertex -1.540716e+001  2.000000e+000  2.939568e+001
    endloop
  endfacet
  facet normal  0.000000e+000  1.000000e+000  -0.000000e+000
    outer loop
      vertex  0.000000e+000  2.000000e+000  4.000000e+001
      vertex -1.540716e+001  2.000000e+000  2.939568e+001
      vertex -1.580099e+001  2.000000e+000  3.042185e+001
    endloop
  endfacet
  facet normal  0.000000e+000  1.000000e+000  -0.000000e+000
    outer loop
      vertex  0.000000e+000  2.000000e+000  4.000000e+001
      vertex -1.580099e+001  2.000000e+000  3.042185e+001
      vertex -1.626227e+001  2.000000e+000  3.141953e+001
    endloop
  endfacet
  facet normal  0.000000e+000  1.000000e+000  -0.000000e+000
    outer loop
      vertex  0.000000e+000  2.000000e+000  4.000000e+001
      vertex -1.626227e+001  2.000000e+000  3.141953e+001
      vertex -1.678895e+001  2.000000e+000  3.238428e+001
    endloop
  endfacet
  facet normal  0.000000e+000  1.000000e+000  -0.000000e+000
    outer loop
      vertex  0.000000e+000  2.000000e+000  4.000000e+001
      vertex -1.678895e+001  2.000000e+000  3.238428e+001
      vertex -1.737870e+001  2.000000e+000  3.331182e+001
    endloop
  endfacet
  facet normal  0.000000e+000  1.000000e+000  -0.000000e+000
    outer loop
      vertex  0.000000e+000  2.000000e+000  4.000000e+001
      vertex -1.737870e+001  2.000000e+000  3.331182e+001
      vertex -1.802889e+001  2.000000e+000  3.419805e+001
    endloop
  endfacet
  facet normal  0.000000e+000  1.000000e+000  -0.000000e+000
    outer loop
      vertex  0.000000e+000  2.000000e+000  4.000000e+001
      vertex -1.802889e+001  2.000000e+000  3.419805e+001
      vertex -1.873664e+001  2.000000e+000  3.503902e+001
    endloop
  endfacet
  facet normal  0.000000e+000  1.000000e+000  -0.000000e+000
    outer loop
      vertex  0.000000e+000  2.000000e+000  4.000000e+001
      vertex -1.873664e+001  2.000000e+000  3.503902e+001
      vertex -1.949881e+001  2.000000e+000  3.583100e+001
    endloop
  endfacet
  facet normal  0.000000e+000  1.000000e+000  -0.000000e+000
    outer loop
      vertex  0.000000e+000  2.000000e+000  4.000000e+001
      vertex -1.949881e+001  2.000000e+000  3.583100e+001
      vertex -2.400000e+001  2.000000e+000  4.000000e+001
    endloop
  endfacet
  facet normal  0.000000e+000  1.000000e+000  0.000000e+000
    outer loop
      vertex  0.000000e+000  2.000000e+000  0.000000e+000
      vertex -2.400000e+001  2.000000e+000  0.000000e+000
      vertex -2.400000e+001  2.000000e+000  1.058447e+000
    endloop
  endfacet
  facet normal  -0.000000e+000  1.000000e+000  0.000000e+000
    outer loop
      vertex  0.000000e+000  2.000000e+000  0.000000e+000
      vertex -2.400000e+001  2.000000e+000  1.058447e+000
      vertex -2.302075e+001  2.000000e+000  1.557649e+000
    endloop
  endfacet
  facet normal  -0.000000e+000  1.000000e+000  0.000000e+000
    outer loop
      vertex  0.000000e+000  2.000000e+000  0.000000e+000
      vertex -2.302075e+001  2.000000e+000  1.557649e+000
      vertex -2.207690e+001  2.000000e+000  2.120939e+000
    endloop
  endfacet
  facet normal  -0.000000e+000  1.000000e+000  0.000000e+000
    outer loop
      vertex  0.000000e+000  2.000000e+000  0.000000e+000
      vertex -2.207690e+001  2.000000e+000  2.120939e+000
      vertex -2.117266e+001  2.000000e+000  2.745821e+000
    endloop
  endfacet
  facet normal  -0.000000e+000  1.000000e+000  0.000000e+000
    outer loop
      vertex  0.000000e+000  2.000000e+000  0.000000e+000
      vertex -2.117266e+001  2.000000e+000  2.745821e+000
      vertex -2.031202e+001  2.000000e+000  3.429518e+000
    endloop
  endfacet
  facet normal  -0.000000e+000  9.999999e-001  0.000000e+000
    outer loop
      vertex  0.000000e+000  2.000000e+000  0.000000e+000
      vertex -2.031202e+001  2.000000e+000  3.429518e+000
      vertex -1.949881e+001  2.000000e+000  4.168999e+000
    endloop
  endfacet
  facet normal  -0.000000e+000  1.000000e+000  0.000000e+000
    outer loop
      vertex  0.000000e+000  2.000000e+000  0.000000e+000
      vertex -1.949881e+001  2.000000e+000  4.168999e+000
      vertex -1.873664e+001  2.000000e+000  4.960981e+000
    endloop
  endfacet
  facet normal  -0.000000e+000  9.999999e-001  0.000000e+000
    outer loop
      vertex  0.000000e+000  2.000000e+000  0.000000e+000
      vertex -1.873664e+001  2.000000e+000  4.960981e+000
      vertex -1.802889e+001  2.000000e+000  5.801950e+000
    endloop
  endfacet
  facet normal  -0.000000e+000  1.000000e+000  0.000000e+000
    outer loop
      vertex  0.000000e+000  2.000000e+000  0.000000e+000
      vertex -1.802889e+001  2.000000e+000  5.801950e+000
      vertex -1.737870e+001  2.000000e+000  6.688173e+000
    endloop
  endfacet
  facet normal  -0.000000e+000  1.000000e+000  0.000000e+000
    outer loop
      vertex  0.000000e+000  2.000000e+000  0.000000e+000
      vertex -1.737870e+001  2.000000e+000  6.688173e+000
      vertex -1.678895e+001  2.000000e+000  7.615720e+000
    endloop
  endfacet
  facet normal  -0.000000e+000  1.000000e+000  0.000000e+000
    outer loop
      vertex  0.000000e+000  2.000000e+000  0.000000e+000
      vertex -1.678895e+001  2.000000e+000  7.615720e+000
      vertex -1.626227e+001  2.000000e+000  8.580472e+000
    endloop
  endfacet
  facet normal  -0.000000e+000  1.000000e+000  0.000000e+000
    outer loop
      vertex  0.000000e+000  2.000000e+000  0.000000e+000
      vertex -1.626227e+001  2.000000e+000  8.580472e+000
      vertex -1.580099e+001  2.000000e+000  9.578149e+000
    endloop
  endfacet
  facet normal  -0.000000e+000  1.000000e+000  0.000000e+000
    outer loop
      vertex  0.000000e+000  2.000000e+000  0.000000e+000
      vertex -1.580099e+001  2.000000e+000  9.578149e+000
      vertex -1.540716e+001  2.000000e+000  1.060432e+001
    endloop
  endfacet
  facet normal  -0.000000e+000  1.000000e+000  0.000000e+000
    outer loop
      vertex  0.000000e+000  2.000000e+000  0.000000e+000
      vertex -1.540716e+001  2.000000e+000  1.060432e+001
      vertex -1.508252e+001  2.000000e+000  1.165444e+001
    endloop
  endfacet
  facet normal  -0.000000e+000  1.000000e+000  0.000000e+000
    outer loop
      vertex  0.000000e+000  2.000000e+000  0.000000e+000
      vertex -1.508252e+001  2.000000e+000  1.165444e+001
      vertex -1.482852e+001  2.000000e+000  1.272385e+001
    endloop
  endfacet
  facet normal  -0.000000e+000  1.000000e+000  0.000000e+000
    outer loop
      vertex  0.000000e+000  2.000000e+000  0.000000e+000
      vertex -1.482852e+001  2.000000e+000  1.272385e+001
      vertex -1.464628e+001  2.000000e+000  1.380779e+001
    endloop
  endfacet
  facet normal  -0.000000e+000  1.000000e+000  0.000000e+000
    outer loop
      vertex  0.000000e+000  2.000000e+000  0.000000e+000
      vertex -1.464628e+001  2.000000e+000  1.380779e+001
      vertex -1.453661e+001  2.000000e+000  1.490146e+001
    endloop
  endfacet
  facet normal  -0.000000e+000  1.000000e+000  0.000000e+000
    outer loop
      vertex  0.000000e+000  2.000000e+000  0.000000e+000
      vertex -1.453661e+001  2.000000e+000  1.490146e+001
      vertex -1.450000e+001  2.000000e+000  1.600000e+001
    endloop
  endfacet
  facet normal -1.000000e+000  0.000000e+000  0.000000e+000
    outer loop
      vertex -2.400000e+001  2.000000e+000  4.000000e+001
      vertex -2.400000e+001  2.000000e+000  3.894155e+001
      vertex -2.400000e+001  0.000000e+000  4.000000e+001
    endloop
  endfacet
  facet normal -1.000000e+000  0.000000e+000  0.000000e+000
    outer loop
      vertex -2.400000e+001  0.000000e+000  4.000000e+001
      vertex -2.400000e+001  2.000000e+000  3.894155e+001
      vertex -2.400000e+001  0.000000e+000  3.894155e+001
    endloop
  endfacet
  facet normal -8.777229e-001  -0.000000e+000 -4.791687e-001
    outer loop
      vertex -1.678895e+001  0.000000e+000  3.238428e+001
      vertex -1.626227e+001  2.000000e+000  3.141953e+001
      vertex -1.626227e+001  0.000000e+000  3.141953e+001
    endloop
  endfacet
  facet normal -9.076772e-001  0.000000e+000 -4.196691e-001
    outer loop
      vertex -1.626227e+001  0.000000e+000  3.141953e+001
      vertex -1.626227e+001  2.000000e+000  3.141953e+001
      vertex -1.580099e+001  2.000000e+000  3.042185e+001
    endloop
  endfacet
  facet normal -9.076772e-001  -0.000000e+000 -4.196691e-001
    outer loop
      vertex -1.626227e+001  0.000000e+000  3.141953e+001
      vertex -1.580099e+001  2.000000e+000  3.042185e+001
      vertex -1.580099e+001  0.000000e+000  3.042185e+001
    endloop
  endfacet
  facet normal -9.336043e-001  0.000000e+000 -3.583058e-001
    outer loop
      vertex -1.580099e+001  0.000000e+000  3.042185e+001
      vertex -1.580099e+001  2.000000e+000  3.042185e+001
      vertex -1.540716e+001  2.000000e+000  2.939568e+001
    endloop
  endfacet
  facet normal -9.336043e-001  -0.000000e+000 -3.583058e-001
    outer loop
      vertex -1.580099e+001  0.000000e+000  3.042185e+001
      vertex -1.540716e+001  2.000000e+000  2.939568e+001
      vertex -1.540716e+001  0.000000e+000  2.939568e+001
    endloop
  endfacet
  facet normal -9.553885e-001  0.000000e+000 -2.953520e-001
    outer loop
      vertex -1.540716e+001  0.000000e+000  2.939568e+001
      vertex -1.540716e+001  2.000000e+000  2.939568e+001
      vertex -1.508252e+001  2.000000e+000  2.834556e+001
    endloop
  endfacet
  facet normal -9.553885e-001  -0.000000e+000 -2.953520e-001
    outer loop
      vertex -1.540716e+001  0.000000e+000  2.939568e+001
      vertex -1.508252e+001  2.000000e+000  2.834556e+001
      vertex -1.508252e+001  0.000000e+000  2.834556e+001
    endloop
  endfacet
  facet normal -9.729326e-001  0.000000e+000 -2.310892e-001
    outer loop
      vertex -1.508252e+001  0.000000e+000  2.834556e+001
      vertex -1.508252e+001  2.000000e+000  2.834556e+001
      vertex -1.482852e+001  2.000000e+000  2.727615e+001
    endloop
  endfacet
  facet normal -9.729326e-001  -0.000000e+000 -2.310892e-001
    outer loop
      vertex -1.508252e+001  0.000000e+000  2.834556e+001
      vertex -1.482852e+001  2.000000e+000  2.727615e+001
      vertex -1.482852e+001  0.000000e+000  2.727615e+001
    endloop
  endfacet
  facet normal -9.861593e-001  0.000000e+000 -1.658008e-001
    outer loop
      vertex -1.482852e+001  0.000000e+000  2.727615e+001
      vertex -1.482852e+001  2.000000e+000  2.727615e+001
      vertex -1.464628e+001  2.000000e+000  2.619221e+001
    endloop
  endfacet
  facet normal -9.861593e-001  -0.000000e+000 -1.658008e-001
    outer loop
      vertex -1.482852e+001  0.000000e+000  2.727615e+001
      vertex -1.464628e+001  2.000000e+000  2.619221e+001
      vertex -1.464628e+001  0.000000e+000  2.619221e+001
    endloop
  endfacet
  facet normal -9.950101e-001  0.000000e+000 -9.977484e-002
    outer loop
      vertex -1.464628e+001  0.000000e+000  2.619221e+001
      vertex -1.464628e+001  2.000000e+000  2.619221e+001
      vertex -1.453661e+001  2.000000e+000  2.509855e+001
    endloop
  endfacet
  facet normal -9.950101e-001  -0.000000e+000 -9.977484e-002
    outer loop
      vertex -1.464628e+001  0.000000e+000  2.619221e+001
      vertex -1.453661e+001  2.000000e+000  2.509855e+001
      vertex -1.453661e+001  0.000000e+000  2.509855e+001
    endloop
  endfacet
  facet normal -9.994451e-001  0.000000e+000 -3.330795e-002
    outer loop
      vertex -1.453661e+001  0.000000e+000  2.509855e+001
      vertex -1.453661e+001  2.000000e+000  2.509855e+001
      vertex -1.450000e+001  2.000000e+000  2.400000e+001
    endloop
  endfacet
  facet normal -9.994451e-001  -0.000000e+000 -3.330795e-002
    outer loop
      vertex -1.453661e+001  0.000000e+000  2.509855e+001
      vertex -1.450000e+001  2.000000e+000  2.400000e+001
      vertex -1.450000e+001  0.000000e+000  2.400000e+001
    endloop
  endfacet
  facet normal -8.777229e-001  0.000000e+000 -4.791687e-001
    outer loop
      vertex -1.626227e+001  2.000000e+000  3.141953e+001
      vertex -1.678895e+001  0.000000e+000  3.238428e+001
      vertex -1.678895e+001  2.000000e+000  3.238428e+001
    endloop
  endfacet
  facet normal -8.438726e-001  -0.000000e+000 -5.365437e-001
    outer loop
      vertex -1.678895e+001  2.000000e+000  3.238428e+001
      vertex -1.678895e+001  0.000000e+000  3.238428e+001
      vertex -1.737870e+001  0.000000e+000  3.331182e+001
    endloop
  endfacet
  facet normal -8.438726e-001  0.000000e+000 -5.365437e-001
    outer loop
      vertex -1.678895e+001  2.000000e+000  3.238428e+001
      vertex -1.737870e+001  0.000000e+000  3.331182e+001
      vertex -1.737870e+001  2.000000e+000  3.331182e+001
    endloop
  endfacet
  facet normal -8.062788e-001  -0.000000e+000 -5.915357e-001
    outer loop
      vertex -1.737870e+001  2.000000e+000  3.331182e+001
      vertex -1.737870e+001  0.000000e+000  3.331182e+001
      vertex -1.802889e+001  0.000000e+000  3.419805e+001
    endloop
  endfacet
  facet normal -8.062788e-001  0.000000e+000 -5.915357e-001
    outer loop
      vertex -1.737870e+001  2.000000e+000  3.331182e+001
      vertex -1.802889e+001  0.000000e+000  3.419805e+001
      vertex -1.802889e+001  2.000000e+000  3.419805e+001
    endloop
  endfacet
  facet normal -7.651058e-001  -0.000000e+000 -6.439046e-001
    outer loop
      vertex -1.802889e+001  2.000000e+000  3.419805e+001
      vertex -1.802889e+001  0.000000e+000  3.419805e+001
      vertex -1.873664e+001  0.000000e+000  3.503902e+001
    endloop
  endfacet
  facet normal -7.651058e-001  0.000000e+000 -6.439046e-001
    outer loop
      vertex -1.802889e+001  2.000000e+000  3.419805e+001
      vertex -1.873664e+001  0.000000e+000  3.503902e+001
      vertex -1.873664e+001  2.000000e+000  3.503902e+001
    endloop
  endfacet
  facet normal -7.205372e-001  -0.000000e+000 -6.934164e-001
    outer loop
      vertex -1.873664e+001  2.000000e+000  3.503902e+001
      vertex -1.873664e+001  0.000000e+000  3.503902e+001
      vertex -1.949881e+001  0.000000e+000  3.583100e+001
    endloop
  endfacet
  facet normal -7.205372e-001  0.000000e+000 -6.934164e-001
    outer loop
      vertex -1.873664e+001  2.000000e+000  3.503902e+001
      vertex -1.949881e+001  0.000000e+000  3.583100e+001
      vertex -1.949881e+001  2.000000e+000  3.583100e+001
    endloop
  endfacet
  facet normal -6.727713e-001  -0.000000e+000 -7.398506e-001
    outer loop
      vertex -1.949881e+001  2.000000e+000  3.583100e+001
      vertex -1.949881e+001  0.000000e+000  3.583100e+001
      vertex -2.031202e+001  0.000000e+000  3.657048e+001
    endloop
  endfacet
  facet normal -6.727713e-001  0.000000e+000 -7.398506e-001
    outer loop
      vertex -1.949881e+001  2.000000e+000  3.583100e+001
      vertex -2.031202e+001  0.000000e+000  3.657048e+001
      vertex -2.031202e+001  2.000000e+000  3.657048e+001
    endloop
  endfacet
  facet normal -6.220233e-001  -0.000000e+000 -7.829987e-001
    outer loop
      vertex -2.031202e+001  2.000000e+000  3.657048e+001
      vertex -2.031202e+001  0.000000e+000  3.657048e+001
      vertex -2.117266e+001  0.000000e+000  3.725418e+001
    endloop
  endfacet
  facet normal -6.220233e-001  0.000000e+000 -7.829987e-001
    outer loop
      vertex -2.031202e+001  2.000000e+000  3.657048e+001
      vertex -2.117266e+001  0.000000e+000  3.725418e+001
      vertex -2.117266e+001  2.000000e+000  3.725418e+001
    endloop
  endfacet
  facet normal -5.685090e-001  -0.000000e+000 -8.226771e-001
    outer loop
      vertex -2.117266e+001  2.000000e+000  3.725418e+001
      vertex -2.117266e+001  0.000000e+000  3.725418e+001
      vertex -2.207690e+001  0.000000e+000  3.787906e+001
    endloop
  endfacet
  facet normal -5.685090e-001  0.000000e+000 -8.226771e-001
    outer loop
      vertex -2.117266e+001  2.000000e+000  3.725418e+001
      vertex -2.207690e+001  0.000000e+000  3.787906e+001
      vertex -2.207690e+001  2.000000e+000  3.787906e+001
    endloop
  endfacet
  facet normal -5.124788e-001  -0.000000e+000 -8.586999e-001
    outer loop
      vertex -2.207690e+001  2.000000e+000  3.787906e+001
      vertex -2.207690e+001  0.000000e+000  3.787906e+001
      vertex -2.302075e+001  0.000000e+000  3.844235e+001
    endloop
  endfacet
  facet normal -5.124788e-001  0.000000e+000 -8.586999e-001
    outer loop
      vertex -2.207690e+001  2.000000e+000  3.787906e+001
      vertex -2.302075e+001  0.000000e+000  3.844235e+001
      vertex -2.302075e+001  2.000000e+000  3.844235e+001
    endloop
  endfacet
  facet normal -4.541669e-001  -0.000000e+000 -8.909166e-001
    outer loop
      vertex -2.302075e+001  2.000000e+000  3.844235e+001
      vertex -2.302075e+001  0.000000e+000  3.844235e+001
      vertex -2.400000e+001  0.000000e+000  3.894155e+001
    endloop
  endfacet
  facet normal -4.541669e-001  0.000000e+000 -8.909166e-001
    outer loop
      vertex -2.302075e+001  2.000000e+000  3.844235e+001
      vertex -2.400000e+001  0.000000e+000  3.894155e+001
      vertex -2.400000e+001  2.000000e+000  3.894155e+001
    endloop
  endfacet
  facet normal -1.000000e+000  0.000000e+000  0.000000e+000
    outer loop
      vertex -1.450000e+001  2.000000e+000  2.400000e+001
      vertex -1.450000e+001  2.000000e+000  1.600000e+001
      vertex -1.450000e+001  0.000000e+000  2.400000e+001
    endloop
  endfacet
  facet normal -1.000000e+000  0.000000e+000  0.000000e+000
    outer loop
      vertex -1.450000e+001  0.000000e+000  2.400000e+001
      vertex -1.450000e+001  2.000000e+000  1.600000e+001
      vertex -1.450000e+001  0.000000e+000  1.600000e+001
    endloop
  endfacet
  facet normal -8.062779e-001  0.000000e+000  5.915370e-001
    outer loop
      vertex -1.737870e+001  0.000000e+000  6.688173e+000
      vertex -1.802889e+001  2.000000e+000  5.801950e+000
      vertex -1.802889e+001  0.000000e+000  5.801950e+000
    endloop
  endfacet
  facet normal -7.651056e-001  0.000000e+000  6.439048e-001
    outer loop
      vertex -1.802889e+001  0.000000e+000  5.801950e+000
      vertex -1.802889e+001  2.000000e+000  5.801950e+000
      vertex -1.873664e+001  2.000000e+000  4.960981e+000
    endloop
  endfacet
  facet normal -7.651056e-001  0.000000e+000  6.439048e-001
    outer loop
      vertex -1.802889e+001  0.000000e+000  5.801950e+000
      vertex -1.873664e+001  2.000000e+000  4.960981e+000
      vertex -1.873664e+001  0.000000e+000  4.960981e+000
    endloop
  endfacet
  facet normal -7.205378e-001  0.000000e+000  6.934157e-001
    outer loop
      vertex -1.873664e+001  0.000000e+000  4.960981e+000
      vertex -1.873664e+001  2.000000e+000  4.960981e+000
      vertex -1.949881e+001  2.000000e+000  4.168999e+000
    endloop
  endfacet
  facet normal -7.205378e-001  0.000000e+000  6.934157e-001
    outer loop
      vertex -1.873664e+001  0.000000e+000  4.960981e+000
      vertex -1.949881e+001  2.000000e+000  4.168999e+000
      vertex -1.949881e+001  0.000000e+000  4.168999e+000
    endloop
  endfacet
  facet normal -6.727720e-001  0.000000e+000  7.398499e-001
    outer loop
      vertex -1.949881e+001  0.000000e+000  4.168999e+000
      vertex -1.949881e+001  2.000000e+000  4.168999e+000
      vertex -2.031202e+001  2.000000e+000  3.429518e+000
    endloop
  endfacet
  facet normal -6.727720e-001  0.000000e+000  7.398499e-001
    outer loop
      vertex -1.949881e+001  0.000000e+000  4.168999e+000
      vertex -2.031202e+001  2.000000e+000  3.429518e+000
      vertex -2.031202e+001  0.000000e+000  3.429518e+000
    endloop
  endfacet
  facet normal -6.220217e-001  0.000000e+000  7.830000e-001
    outer loop
      vertex -2.031202e+001  0.000000e+000  3.429518e+000
      vertex -2.031202e+001  2.000000e+000  3.429518e+000
      vertex -2.117266e+001  2.000000e+000  2.745821e+000
    endloop
  endfacet
  facet normal -6.220217e-001  0.000000e+000  7.830000e-001
    outer loop
      vertex -2.031202e+001  0.000000e+000  3.429518e+000
      vertex -2.117266e+001  2.000000e+000  2.745821e+000
      vertex -2.117266e+001  0.000000e+000  2.745821e+000
    endloop
  endfacet
  facet normal -5.685109e-001  0.000000e+000  8.226757e-001
    outer loop
      vertex -2.117266e+001  0.000000e+000  2.745821e+000
      vertex -2.117266e+001  2.000000e+000  2.745821e+000
      vertex -2.207690e+001  2.000000e+000  2.120939e+000
    endloop
  endfacet
  facet normal -5.685109e-001  0.000000e+000  8.226757e-001
    outer loop
      vertex -2.117266e+001  0.000000e+000  2.745821e+000
      vertex -2.207690e+001  2.000000e+000  2.120939e+000
      vertex -2.207690e+001  0.000000e+000  2.120939e+000
    endloop
  endfacet
  facet normal -5.124771e-001  0.000000e+000  8.587009e-001
    outer loop
      vertex -2.207690e+001  0.000000e+000  2.120939e+000
      vertex -2.207690e+001  2.000000e+000  2.120939e+000
      vertex -2.302075e+001  2.000000e+000  1.557649e+000
    endloop
  endfacet
  facet normal -5.124771e-001  0.000000e+000  8.587009e-001
    outer loop
      vertex -2.207690e+001  0.000000e+000  2.120939e+000
      vertex -2.302075e+001  2.000000e+000  1.557649e+000
      vertex -2.302075e+001  0.000000e+000  1.557649e+000
    endloop
  endfacet
  facet normal -4.541687e-001  0.000000e+000  8.909158e-001
    outer loop
      vertex -2.302075e+001  0.000000e+000  1.557649e+000
      vertex -2.302075e+001  2.000000e+000  1.557649e+000
      vertex -2.400000e+001  2.000000e+000  1.058447e+000
    endloop
  endfacet
  facet normal -4.541687e-001  0.000000e+000  8.909158e-001
    outer loop
      vertex -2.302075e+001  0.000000e+000  1.557649e+000
      vertex -2.400000e+001  2.000000e+000  1.058447e+000
      vertex -2.400000e+001  0.000000e+000  1.058447e+000
    endloop
  endfacet
  facet normal -8.062779e-001  0.000000e+000  5.915370e-001
    outer loop
      vertex -1.802889e+001  2.000000e+000  5.801950e+000
      vertex -1.737870e+001  0.000000e+000  6.688173e+000
      vertex -1.737870e+001  2.000000e+000  6.688173e+000
    endloop
  endfacet
  facet normal -8.438733e-001  0.000000e+000  5.365425e-001
    outer loop
      vertex -1.737870e+001  2.000000e+000  6.688173e+000
      vertex -1.737870e+001  0.000000e+000  6.688173e+000
      vertex -1.678895e+001  0.000000e+000  7.615720e+000
    endloop
  endfacet
  facet normal -8.438733e-001  0.000000e+000  5.365425e-001
    outer loop
      vertex -1.737870e+001  2.000000e+000  6.688173e+000
      vertex -1.678895e+001  0.000000e+000  7.615720e+000
      vertex -1.678895e+001  2.000000e+000  7.615720e+000
    endloop
  endfacet
  facet normal -8.777229e-001  0.000000e+000  4.791687e-001
    outer loop
      vertex -1.678895e+001  2.000000e+000  7.615720e+000
      vertex -1.678895e+001  0.000000e+000  7.615720e+000
      vertex -1.626227e+001  0.000000e+000  8.580472e+000
    endloop
  endfacet
  facet normal -8.777229e-001  0.000000e+000  4.791687e-001
    outer loop
      vertex -1.678895e+001  2.000000e+000  7.615720e+000
      vertex -1.626227e+001  0.000000e+000  8.580472e+000
      vertex -1.626227e+001  2.000000e+000  8.580472e+000
    endloop
  endfacet
  facet normal -9.076769e-001  0.000000e+000  4.196697e-001
    outer loop
      vertex -1.626227e+001  2.000000e+000  8.580472e+000
      vertex -1.626227e+001  0.000000e+000  8.580472e+000
      vertex -1.580099e+001  0.000000e+000  9.578149e+000
    endloop
  endfacet
  facet normal -9.076769e-001  0.000000e+000  4.196697e-001
    outer loop
      vertex -1.626227e+001  2.000000e+000  8.580472e+000
      vertex -1.580099e+001  0.000000e+000  9.578149e+000
      vertex -1.580099e+001  2.000000e+000  9.578149e+000
    endloop
  endfacet
  facet normal -9.336044e-001  0.000000e+000  3.583055e-001
    outer loop
      vertex -1.580099e+001  2.000000e+000  9.578149e+000
      vertex -1.580099e+001  0.000000e+000  9.578149e+000
      vertex -1.540716e+001  0.000000e+000  1.060432e+001
    endloop
  endfacet
  facet normal -9.336044e-001  0.000000e+000  3.583055e-001
    outer loop
      vertex -1.580099e+001  2.000000e+000  9.578149e+000
      vertex -1.540716e+001  0.000000e+000  1.060432e+001
      vertex -1.540716e+001  2.000000e+000  1.060432e+001
    endloop
  endfacet
  facet normal -9.553884e-001  0.000000e+000  2.953522e-001
    outer loop
      vertex -1.540716e+001  2.000000e+000  1.060432e+001
      vertex -1.540716e+001  0.000000e+000  1.060432e+001
      vertex -1.508252e+001  0.000000e+000  1.165444e+001
    endloop
  endfacet
  facet normal -9.553884e-001  0.000000e+000  2.953522e-001
    outer loop
      vertex -1.540716e+001  2.000000e+000  1.060432e+001
      vertex -1.508252e+001  0.000000e+000  1.165444e+001
      vertex -1.508252e+001  2.000000e+000  1.165444e+001
    endloop
  endfacet
  facet normal -9.729326e-001  0.000000e+000  2.310892e-001
    outer loop
      vertex -1.508252e+001  2.000000e+000  1.165444e+001
      vertex -1.508252e+001  0.000000e+000  1.165444e+001
      vertex -1.482852e+001  0.000000e+000  1.272385e+001
    endloop
  endfacet
  facet normal -9.729326e-001  0.000000e+000  2.310892e-001
    outer loop
      vertex -1.508252e+001  2.000000e+000  1.165444e+001
      vertex -1.482852e+001  0.000000e+000  1.272385e+001
      vertex -1.482852e+001  2.000000e+000  1.272385e+001
    endloop
  endfacet
  facet normal -9.861593e-001  0.000000e+000  1.658006e-001
    outer loop
      vertex -1.482852e+001  2.000000e+000  1.272385e+001
      vertex -1.482852e+001  0.000000e+000  1.272385e+001
      vertex -1.464628e+001  0.000000e+000  1.380779e+001
    endloop
  endfacet
  facet normal -9.861593e-001  0.000000e+000  1.658006e-001
    outer loop
      vertex -1.482852e+001  2.000000e+000  1.272385e+001
      vertex -1.464628e+001  0.000000e+000  1.380779e+001
      vertex -1.464628e+001  2.000000e+000  1.380779e+001
    endloop
  endfacet
  facet normal -9.950101e-001  0.000000e+000  9.977475e-002
    outer loop
      vertex -1.464628e+001  2.000000e+000  1.380779e+001
      vertex -1.464628e+001  0.000000e+000  1.380779e+001
      vertex -1.453661e+001  0.000000e+000  1.490146e+001
    endloop
  endfacet
  facet normal -9.950101e-001  0.000000e+000  9.977475e-002
    outer loop
      vertex -1.464628e+001  2.000000e+000  1.380779e+001
      vertex -1.453661e+001  0.000000e+000  1.490146e+001
      vertex -1.453661e+001  2.000000e+000  1.490146e+001
    endloop
  endfacet
  facet normal -9.994451e-001  0.000000e+000  3.330798e-002
    outer loop
      vertex -1.453661e+001  2.000000e+000  1.490146e+001
      vertex -1.453661e+001  0.000000e+000  1.490146e+001
      vertex -1.450000e+001  0.000000e+000  1.600000e+001
    endloop
  endfacet
  facet normal -9.994451e-001  0.000000e+000  3.330798e-002
    outer loop
      vertex -1.453661e+001  2.000000e+000  1.490146e+001
      vertex -1.450000e+001  0.000000e+000  1.600000e+001
      vertex -1.450000e+001  2.000000e+000  1.600000e+001
    endloop
  endfacet
  facet normal -1.000000e+000  0.000000e+000  0.000000e+000
    outer loop
      vertex -2.400000e+001  2.000000e+000  1.058447e+000
      vertex -2.400000e+001  2.000000e+000  0.000000e+000
      vertex -2.400000e+001  0.000000e+000  1.058447e+000
    endloop
  endfacet
  facet normal -1.000000e+000  0.000000e+000  0.000000e+000
    outer loop
      vertex -2.400000e+001  0.000000e+000  1.058447e+000
      vertex -2.400000e+001  2.000000e+000  0.000000e+000
      vertex -2.400000e+001  0.000000e+000  0.000000e+000
    endloop
  endfacet
  facet normal  0.000000e+000  0.000000e+000 -1.000000e+000
    outer loop
      vertex  0.000000e+000  2.000000e+000  0.000000e+000
      vertex  0.000000e+000  0.000000e+000  0.000000e+000
      vertex -2.400000e+001  2.000000e+000  0.000000e+000
    endloop
  endfacet
  facet normal  0.000000e+000  0.000000e+000 -1.000000e+000
    outer loop
      vertex -2.400000e+001  2.000000e+000  0.000000e+000
      vertex  0.000000e+000  0.000000e+000  0.000000e+000
      vertex -2.400000e+001  0.000000e+000  0.000000e+000
    endloop
  endfacet
  facet normal  1.000000e+000  -0.000000e+000  0.000000e+000
    outer loop
      vertex  0.000000e+000  2.000000e+000  4.000000e+001
      vertex  0.000000e+000  0.000000e+000  4.000000e+001
      vertex  0.000000e+000  2.000000e+000  0.000000e+000
    endloop
  endfacet
  facet normal  1.000000e+000  0.000000e+000  0.000000e+000
    outer loop
      vertex  0.000000e+000  2.000000e+000  0.000000e+000
      vertex  0.000000e+000  0.000000e+000  4.000000e+001
      vertex  0.000000e+000  0.000000e+000  0.000000e+000
    endloop
  endfacet
  facet normal  -0.000000e+000  0.000000e+000  1.000000e+000
    outer loop
      vertex  0.000000e+000  2.000000e+000  4.000000e+001
      vertex -2.400000e+001  2.000000e+000  4.000000e+001
      vertex  0.000000e+000  0.000000e+000  4.000000e+001
    endloop
  endfacet
  facet normal  0.000000e+000  0.000000e+000  1.000000e+000
    outer loop
      vertex  0.000000e+000  0.000000e+000  4.000000e+001
      vertex -2.400000e+001  2.000000e+000  4.000000e+001
      vertex -2.400000e+001  0.000000e+000  4.000000e+001
    endloop
  endfacet
endsolid CATIA STL
